<?xml version="1.0" encoding="UTF-8" standalone="no"?>
<!-- Created with Inkscape (http://www.inkscape.org/) -->

<svg
   width="210mm"
   height="297mm"
   viewBox="0 0 210 297"
   version="1.1"
   id="svg5"
   sodipodi:docname="Logo_2.0_Typeface_Path.svg"
   inkscape:version="1.1.1 (c3084ef, 2021-09-22)"
   xmlns:inkscape="http://www.inkscape.org/namespaces/inkscape"
   xmlns:sodipodi="http://sodipodi.sourceforge.net/DTD/sodipodi-0.dtd"
   xmlns="http://www.w3.org/2000/svg"
   xmlns:svg="http://www.w3.org/2000/svg">
  <sodipodi:namedview
     id="namedview7"
     pagecolor="#ffffff"
     bordercolor="#666666"
     borderopacity="1.0"
     inkscape:pageshadow="2"
     inkscape:pageopacity="0.0"
     inkscape:pagecheckerboard="0"
     inkscape:document-units="mm"
     showgrid="false"
     inkscape:zoom="0.83675314"
     inkscape:cx="458.31916"
     inkscape:cy="240.81176"
     inkscape:window-width="1440"
     inkscape:window-height="855"
     inkscape:window-x="0"
     inkscape:window-y="23"
     inkscape:window-maximized="0"
     inkscape:current-layer="g141" />
  <defs
     id="defs2">
    <rect
       x="114.89684"
       y="503.08404"
       width="90.655931"
       height="62.104159"
       id="rect143" />
    <rect
       x="304.95785"
       y="602.29175"
       width="54.925133"
       height="56.840606"
       id="rect145" />
    <rect
       x="304.95786"
       y="602.29175"
       width="54.925133"
       height="56.840607"
       id="rect145-9" />
    <rect
       x="114.89684"
       y="503.08405"
       width="90.65593"
       height="62.10416"
       id="rect143-3" />
    <rect
       x="304.95786"
       y="602.29175"
       width="54.925133"
       height="56.840607"
       id="rect145-9-8" />
    <rect
       x="114.89684"
       y="503.08405"
       width="90.65593"
       height="62.10416"
       id="rect143-3-1" />
    <rect
       x="304.95786"
       y="602.29175"
       width="54.925133"
       height="56.840607"
       id="rect145-9-1" />
    <rect
       x="114.89684"
       y="503.08405"
       width="90.65593"
       height="62.10416"
       id="rect143-3-15" />
    <filter
       inkscape:collect="always"
       style="color-interpolation-filters:sRGB"
       id="filter10441"
       x="-0.11326599"
       y="-0.57429686"
       width="1.226532"
       height="2.1485937">
      <feGaussianBlur
         inkscape:collect="always"
         stdDeviation="4.0660722"
         id="feGaussianBlur10443" />
    </filter>
    <filter
       inkscape:collect="always"
       style="color-interpolation-filters:sRGB"
       id="filter10445"
       x="-0.2373808"
       y="-0.34553173"
       width="1.4747616"
       height="1.6910635">
      <feGaussianBlur
         inkscape:collect="always"
         stdDeviation="4.0660722"
         id="feGaussianBlur10447" />
    </filter>
    <filter
       inkscape:collect="always"
       style="color-interpolation-filters:sRGB"
       id="filter10449"
       x="-0.049962658"
       y="-0.25332757"
       width="1.0999253"
       height="1.5066551">
      <feGaussianBlur
         inkscape:collect="always"
         stdDeviation="1.7935814"
         id="feGaussianBlur10451" />
    </filter>
    <filter
       inkscape:collect="always"
       style="color-interpolation-filters:sRGB"
       id="filter10453"
       x="-0.10471083"
       y="-0.15241719"
       width="1.2094217"
       height="1.3048344">
      <feGaussianBlur
         inkscape:collect="always"
         stdDeviation="1.7935814"
         id="feGaussianBlur10455" />
    </filter>
    <filter
       inkscape:collect="always"
       style="color-interpolation-filters:sRGB"
       id="filter10457"
       x="-0.012480649"
       y="-0.063281111"
       width="1.0249613"
       height="1.1265622">
      <feGaussianBlur
         inkscape:collect="always"
         stdDeviation="0.4480358"
         id="feGaussianBlur10459" />
    </filter>
    <filter
       inkscape:collect="always"
       style="color-interpolation-filters:sRGB"
       id="filter10461"
       x="-0.026156718"
       y="-0.038073745"
       width="1.0523134"
       height="1.0761475">
      <feGaussianBlur
         inkscape:collect="always"
         stdDeviation="0.4480358"
         id="feGaussianBlur10463" />
    </filter>
  </defs>
  <g
     inkscape:groupmode="layer"
     id="g141"
     inkscape:label="Tyepface"
     style="display:inline">
    <g
       id="g1040">
      <g
         aria-label="unicorns"
         transform="matrix(1.0893625,0,0,1.2411342,-114.91006,-579.83661)"
         id="text133-7"
         style="font-size:48px;line-height:1.25;font-family:'Sarah Jason';-inkscape-font-specification:'Sarah Jason, Normal';white-space:pre;shape-inside:url(#rect143-3);display:inline;fill:#e702c1;stroke-width:5.66929;filter:url(#filter10441)">
        <path
           d="m 123.5918,539.90072 c 0.70312,-0.0937 1.33593,-0.63281 1.92187,-1.61718 0.58594,-0.98438 0.89063,-2.27344 0.91406,-3.86719 -0.0234,-0.39844 -0.0703,-0.58594 -0.14062,-0.58594 -0.0937,0 -0.375,0.53906 -0.82031,1.61719 -0.30469,0.72656 -0.60938,1.40625 -0.9375,2.03906 -0.32813,0.63281 -0.63282,0.98438 -0.9375,1.00781 -0.21094,-0.0469 -0.375,-0.375 -0.51563,-0.96093 -0.30469,-1.21875 -0.53906,-3 -0.65625,-4.40625 -0.0703,-0.77344 -0.14062,-1.26563 -0.1875,-1.42969 -0.16406,-0.375 -0.375,-0.5625 -0.58594,-0.5625 -0.60937,0 -1.57031,1.35937 -2.88281,4.05469 -0.44531,0.89062 -0.70312,1.33593 -0.77344,1.33593 v -0.42187 c 0.1875,-2.22656 0.28125,-3.5625 0.28125,-4.05469 0,-0.82031 -0.23437,-1.38281 -0.72656,-1.6875 -0.30469,-0.21094 -0.63281,-0.30469 -0.98437,-0.30469 -0.35157,0 -0.70313,0.0937 -1.10157,0.30469 -1.10156,0.53906 -1.64062,1.57031 -1.64062,3.09375 0,1.00781 0.35156,2.22656 1.03125,3.67969 0.58594,1.14844 1.21875,1.73437 1.85156,1.75781 0.58594,0 1.125,-0.32812 1.66406,-0.96094 0.51563,-0.63281 1.00782,-1.40625 1.45313,-2.34375 0.44531,-0.91406 0.84375,-1.75781 1.17187,-2.55468 0.30469,-0.77344 0.51563,-1.21875 0.58594,-1.28907 0.0703,-0.0703 0.0937,-0.11718 0.11719,-0.11718 0.0469,0 0.0703,0.0937 0.0703,0.25781 0,0.21094 -0.0234,0.5625 -0.0937,1.05469 -0.11719,1.00781 -0.16406,1.89843 -0.16406,2.67187 0,1.19531 0.14062,2.13281 0.39844,2.78906 0.39843,1.00782 0.89062,1.5 1.52343,1.5 z"
           id="path1167" />
        <path
           d="m 136.01367,541.56479 c 0.72656,0 1.38281,-0.39844 1.99219,-1.21875 0.67969,-0.89063 1.24219,-1.92188 1.64062,-3.07032 0.39844,-1.14843 0.60938,-2.0625 0.60938,-2.74218 -0.0234,-0.16407 -0.11719,-0.25782 -0.28125,-0.25782 -0.16406,0 -0.23438,0.0937 -0.23438,0.25782 0,1.03125 -0.60937,2.625 -1.42968,3.9375 -0.67969,1.125 -1.21875,1.6875 -1.61719,1.6875 -0.14063,0 -0.23438,-0.0703 -0.30469,-0.21094 -0.0703,-0.16406 -0.11719,-0.65625 -0.14062,-1.47656 -0.23438,-5.88282 -0.9375,-8.8125 -2.10938,-8.8125 -0.21094,0 -0.46875,0.0937 -0.75,0.30468 -0.77344,0.58594 -1.78125,2.4375 -3.04687,5.55469 -0.60938,1.54688 -0.96094,2.32031 -1.07813,2.32031 -0.0234,0 -0.0469,-0.0469 -0.0469,-0.11718 0,-0.21094 0.0234,-0.60938 0.0937,-1.14844 0.0937,-1.07813 0.14062,-1.99219 0.14062,-2.74219 0,-0.72656 -0.0703,-1.42969 -0.21094,-2.0625 -0.16406,-0.72656 -0.53906,-1.24219 -1.10156,-1.5 -0.16406,-0.0703 -0.35156,-0.0937 -0.53906,-0.0937 -0.375,0 -0.77344,0.14063 -1.19531,0.39844 -0.77344,0.49219 -1.17188,1.42969 -1.17188,2.8125 0,1.54687 0.28125,2.88281 0.84375,4.00781 0.72656,1.45313 1.54688,2.17969 2.48438,2.17969 0.72656,0 1.33593,-0.63281 1.82812,-1.92188 0.63281,-1.94531 1.38281,-3.63281 2.22656,-5.10937 0.35157,-0.58594 0.58594,-0.89063 0.72657,-0.89063 0.0937,0 0.14062,0.0937 0.14062,0.30469 0,0.30469 -0.0937,0.86719 -0.25781,1.66406 -0.14063,0.63282 -0.21094,1.35938 -0.21094,2.13282 0,1.54687 0.28125,2.90625 0.82031,4.07812 0.42188,0.9375 1.05469,1.5 1.92188,1.71094 z"
           id="path1169" />
        <path
           d="m 141.47461,529.4476 c 0.63281,0 1.03125,-0.30469 1.19531,-0.91406 0.0234,-0.16407 0.0469,-0.32813 0.0469,-0.46875 0,-0.84375 -0.60938,-1.19532 -1.24219,-1.19532 -0.11719,0 -0.23438,0.0234 -0.35156,0.0469 -0.70313,0.14062 -1.05469,0.51562 -1.05469,1.10156 0,0.30469 0.14062,0.63281 0.39844,1.03125 0.30468,0.25781 0.63281,0.39844 1.00781,0.39844 z m 1.05469,12.25781 c 0.53906,0 1.10156,-0.30469 1.73437,-0.89062 0.9375,-0.91407 1.89844,-2.90625 2.90625,-6 0.0703,-0.23438 0.11719,-0.42188 0.11719,-0.53907 0,-0.21093 -0.0469,-0.30468 -0.16406,-0.30468 -0.21094,0 -0.65625,0.82031 -1.33594,2.48437 -0.91406,2.34375 -1.59375,3.51563 -2.03906,3.51563 -0.35157,0 -0.5625,-0.82032 -0.67969,-2.46094 -0.16406,-2.74219 -0.23438,-4.3125 -0.23438,-4.71094 v -0.14062 c 0.0234,0 0.0234,0.0703 0.0469,0.1875 -0.0937,-1.28907 -0.65625,-1.94532 -1.6875,-1.94532 -0.44531,0 -0.86719,0.23438 -1.28906,0.72657 -0.53907,0.63281 -0.82032,1.875 -0.82032,3.72656 0,1.24219 0.28125,2.50781 0.82032,3.75 0.72656,1.73437 1.59375,2.60156 2.625,2.60156 z"
           id="path1171" />
        <path
           d="m 149.30273,541.14291 c 0.79688,-0.0234 1.52344,-0.375 2.15625,-1.00781 0.63282,-0.63281 1.19532,-1.40625 1.64063,-2.29688 0.44531,-0.89062 0.77344,-1.71093 1.03125,-2.4375 0.23437,-0.72656 0.35156,-1.19531 0.35156,-1.40625 -0.0234,-0.39843 -0.0703,-0.58593 -0.14062,-0.58593 -0.11719,0 -0.375,0.51562 -0.77344,1.52343 -0.42188,1.03125 -0.96094,2.10938 -1.61719,3.25782 -0.65625,1.125 -1.40625,1.78125 -2.25,1.94531 -1.05469,-0.0234 -1.57031,-0.84375 -1.57031,-2.4375 0,-0.58594 0.14062,-1.17188 0.39844,-1.80469 1.05468,-2.15625 1.66406,-2.01562 1.92187,-2.01562 0.21094,0 0.375,0.0703 0.5625,0.0703 0.32813,0 0.63281,-0.21094 0.89063,-0.65625 0.16406,-0.39844 0.25781,-0.75 0.25781,-1.07813 0,-0.51562 -0.1875,-0.96093 -0.58594,-1.35937 -0.58594,-0.58594 -1.28906,-0.86719 -2.13281,-0.86719 -1.21875,0 -2.15625,0.70313 -2.83594,2.10938 -0.30469,0.82031 -0.46875,1.75781 -0.46875,2.78906 0,1.6875 0.35156,3.21094 1.03125,4.54687 0.53906,1.05469 1.26563,1.64063 2.13281,1.71094 z"
           id="path1173" />
        <path
           d="m 157.62305,540.29916 c 1.125,0 2.0625,-0.82031 2.8125,-2.4375 0.35156,-0.91406 0.5625,-1.59375 0.60937,-2.08594 l -0.0234,-0.14062 c 0.0703,0.0703 0.25782,0.0937 0.58594,0.0937 0.1875,0 0.46875,-0.0234 0.84375,-0.0937 1.99219,-0.44531 1.89844,-0.84375 1.89844,-0.91406 0,-0.16407 -0.0937,-0.23438 -0.28125,-0.23438 -0.0703,0 -0.14063,0.0234 -0.25781,0.0703 -1.00782,0.375 -1.75782,0.5625 -2.25,0.5625 -0.32813,0 -0.51563,-0.14062 -0.53907,-0.39843 -0.0234,-1.85157 -0.58593,-2.67188 -1.17187,-3 -0.58594,-0.32813 -1.17188,-0.30469 -1.28906,-0.51563 -0.375,-0.86719 -1.03125,-1.3125 -1.96875,-1.33594 -0.89063,0 -1.66407,0.44532 -2.34375,1.33594 -0.49219,0.63281 -0.72657,1.52344 -0.72657,2.625 0,0.49219 0.0469,1.05469 0.14063,1.64063 0.32812,1.64062 0.86719,2.85937 1.64062,3.65625 0.77344,0.77343 1.54688,1.17187 2.32032,1.17187 z m 2.53125,-5.74219 c -0.11719,0 -0.42188,-0.30468 -0.89063,-0.91406 -0.32812,-0.42187 -0.49219,-0.77344 -0.49219,-1.07812 0,-0.28125 0.11719,-0.42188 0.35157,-0.42188 0.23437,0 0.49218,0.25781 0.77343,0.79688 0.25782,0.53906 0.39844,1.00781 0.39844,1.38281 0,0.16406 -0.0469,0.23437 -0.14062,0.23437 z m -1.99219,3.89063 c -0.35156,0 -0.53906,-0.23438 -0.53906,-0.72656 0,-0.28125 0.0469,-0.65625 0.16406,-1.10157 0.49219,-1.89843 0.58594,-2.69531 0.67969,-2.69531 0.0469,0 0.11718,0.0703 0.21093,0.1875 0.11719,0.21094 0.35157,0.46875 0.70313,0.79688 0.39844,0.375 0.60937,0.77343 0.60937,1.21875 0,0.14062 -0.0234,0.28125 -0.0703,0.42187 -0.16406,0.60938 -0.42187,1.07813 -0.79687,1.40625 -0.39844,0.32813 -0.70313,0.49219 -0.96094,0.49219 z"
           id="path1175" />
        <path
           d="m 167.04492,539.31479 c 1.00781,-0.11719 1.85156,-1.47657 2.48438,-4.10157 0.25781,-1.07812 0.44531,-2.08593 0.60937,-3 0.28125,-1.38281 0.46875,-2.08593 0.5625,-2.08593 0.0234,0 0.0469,0.0234 0.0703,0.0469 0.42188,0.58594 0.77344,0.89063 1.05469,0.91406 0.25781,0.0234 0.42188,0.0234 0.49219,0.0234 0.39844,0 0.72656,-0.11719 0.98437,-0.375 0.16407,-0.16406 0.25782,-0.35156 0.25782,-0.5625 0,-0.14062 -0.0469,-0.30469 -0.11719,-0.46875 -0.1875,-0.35156 -0.30469,-0.35156 -0.32813,-0.35156 -0.0937,0 -0.1875,0.0937 -0.30468,0.25781 -0.25782,0.30469 -0.53907,0.46875 -0.82032,0.46875 -0.21093,0 -0.44531,-0.0703 -0.72656,-0.23437 -0.1875,-0.11719 -0.35156,-0.16407 -0.51562,-0.16407 -0.49219,0 -0.86719,0.91407 -1.17188,2.74219 -0.1875,1.38281 -0.58594,2.78906 -1.19531,4.24219 -0.32813,0.67969 -0.53906,1.00781 -0.65625,1.00781 -0.0234,0 -0.0469,-0.0937 -0.0469,-0.28125 0,-0.30469 0.0469,-0.84375 0.16407,-1.61719 0.25781,-1.71093 0.375,-3.02343 0.375,-3.9375 0,-0.53906 -0.0469,-1.05468 -0.11719,-1.5 -0.11719,-0.77343 -0.32813,-1.21875 -0.63281,-1.33593 -0.30469,-0.0937 -0.51563,-0.14063 -0.63282,-0.14063 -0.49218,0 -1.19531,0.32813 -2.08593,1.00781 -1.03125,0.89063 -1.54688,2.08594 -1.54688,3.58594 0,1.47656 0.35156,2.83594 1.07813,4.03125 0.75,1.19531 1.66406,1.80469 2.76562,1.82813 z"
           id="path1177" />
        <path
           d="m 186.07617,541.56479 c 0.72656,0 1.38281,-0.39844 1.99219,-1.21875 0.67969,-0.89063 1.24219,-1.92188 1.64062,-3.07032 0.39844,-1.14843 0.60938,-2.0625 0.60938,-2.74218 -0.0234,-0.16407 -0.11719,-0.25782 -0.28125,-0.25782 -0.16406,0 -0.23438,0.0937 -0.23438,0.25782 0,1.03125 -0.60937,2.625 -1.42968,3.9375 -0.67969,1.125 -1.21875,1.6875 -1.61719,1.6875 -0.14063,0 -0.23438,-0.0703 -0.30469,-0.21094 -0.0703,-0.16406 -0.11719,-0.65625 -0.14062,-1.47656 -0.23438,-5.88282 -0.9375,-8.8125 -2.10938,-8.8125 -0.21094,0 -0.46875,0.0937 -0.75,0.30468 -0.77344,0.58594 -1.78125,2.4375 -3.04687,5.55469 -0.60938,1.54688 -0.96094,2.32031 -1.07813,2.32031 -0.0234,0 -0.0469,-0.0469 -0.0469,-0.11718 0,-0.21094 0.0234,-0.60938 0.0937,-1.14844 0.0937,-1.07813 0.14062,-1.99219 0.14062,-2.74219 0,-0.72656 -0.0703,-1.42969 -0.21094,-2.0625 -0.16406,-0.72656 -0.53906,-1.24219 -1.10156,-1.5 -0.16406,-0.0703 -0.35156,-0.0937 -0.53906,-0.0937 -0.375,0 -0.77344,0.14063 -1.19531,0.39844 -0.77344,0.49219 -1.17188,1.42969 -1.17188,2.8125 0,1.54687 0.28125,2.88281 0.84375,4.00781 0.72656,1.45313 1.54688,2.17969 2.48438,2.17969 0.72656,0 1.33593,-0.63281 1.82812,-1.92188 0.63281,-1.94531 1.38281,-3.63281 2.22656,-5.10937 0.35157,-0.58594 0.58594,-0.89063 0.72657,-0.89063 0.0937,0 0.14062,0.0937 0.14062,0.30469 0,0.30469 -0.0937,0.86719 -0.25781,1.66406 -0.14063,0.63282 -0.21094,1.35938 -0.21094,2.13282 0,1.54687 0.28125,2.90625 0.82031,4.07812 0.42188,0.9375 1.05469,1.5 1.92188,1.71094 z"
           id="path1179" />
        <path
           d="m 192.7793,543.86166 c 1.38281,0 2.08593,-0.86719 2.08593,-2.60156 0,-0.96094 -0.25781,-2.10938 -0.77343,-3.44531 0.58593,-0.5625 1.47656,-1.21875 2.64843,-1.99219 1.17188,-0.77344 2.17969,-1.24219 3.02344,-1.42969 0.14063,-0.0234 0.21094,-0.0937 0.21094,-0.25781 0,-0.23438 -0.11719,-0.35156 -0.375,-0.35156 -1.07813,0.25781 -2.48438,1.05468 -4.24219,2.34375 -0.86719,0.63281 -1.35937,0.9375 -1.5,0.9375 -0.0703,0 -0.0937,-0.0234 -0.11719,-0.0703 -0.49218,-1.14843 -0.72656,-2.10937 -0.72656,-2.85937 0,-0.91406 0.16406,-1.45313 0.46875,-1.64063 0.0703,0 0.14063,-0.0469 0.21094,-0.11718 0.35156,-0.23438 0.51562,-0.63282 0.51562,-1.21875 0,-0.53907 -0.1875,-0.96094 -0.5625,-1.28907 -0.30468,-0.25781 -0.75,-0.375 -1.35937,-0.375 -0.96094,0 -1.71094,0.42188 -2.27344,1.26563 -0.5625,0.84375 -0.84375,1.71094 -0.84375,2.60156 0,0.39844 0.0469,0.82031 0.14063,1.26563 0.28125,1.45312 1.28906,2.88281 3.04687,4.3125 -0.89062,1.26562 -1.33594,2.29687 -1.33594,3.11718 0,0.21094 0.0234,0.39844 0.0937,0.5625 0.28125,0.82032 0.84375,1.24219 1.66407,1.24219 z m -0.21094,-1.00781 c -0.44531,0 -0.67969,-0.32813 -0.67969,-0.96094 0,-0.25781 0,-0.46875 0.16406,-0.9375 0.25782,-0.77344 0.58594,-1.3125 0.70313,-1.3125 0.0234,0 0.0469,0.0234 0.0703,0.0469 0.42188,0.70312 0.63281,1.3125 0.63281,1.80468 0,0.91407 -0.30468,1.35938 -0.89062,1.35938 z"
           id="path1181" />
      </g>
      <g
         aria-label="unicorns"
         transform="matrix(1.1483715,0,0,1.5838112,-121.05424,-763.89468)"
         id="text133-7-0"
         style="font-size:48px;line-height:1.25;font-family:'Sarah Jason';-inkscape-font-specification:'Sarah Jason, Normal';white-space:pre;shape-inside:url(#rect143-3-1);fill:#e702c1;fill-opacity:0.6;stroke-width:3.77953;filter:url(#filter10449)">
        <path
           d="m 123.5918,539.90072 c 0.70312,-0.0937 1.33593,-0.63281 1.92187,-1.61718 0.58594,-0.98438 0.89063,-2.27344 0.91406,-3.86719 -0.0234,-0.39844 -0.0703,-0.58594 -0.14062,-0.58594 -0.0937,0 -0.375,0.53906 -0.82031,1.61719 -0.30469,0.72656 -0.60938,1.40625 -0.9375,2.03906 -0.32813,0.63281 -0.63282,0.98438 -0.9375,1.00781 -0.21094,-0.0469 -0.375,-0.375 -0.51563,-0.96093 -0.30469,-1.21875 -0.53906,-3 -0.65625,-4.40625 -0.0703,-0.77344 -0.14062,-1.26563 -0.1875,-1.42969 -0.16406,-0.375 -0.375,-0.5625 -0.58594,-0.5625 -0.60937,0 -1.57031,1.35937 -2.88281,4.05469 -0.44531,0.89062 -0.70312,1.33593 -0.77344,1.33593 v -0.42187 c 0.1875,-2.22656 0.28125,-3.5625 0.28125,-4.05469 0,-0.82031 -0.23437,-1.38281 -0.72656,-1.6875 -0.30469,-0.21094 -0.63281,-0.30469 -0.98437,-0.30469 -0.35157,0 -0.70313,0.0937 -1.10157,0.30469 -1.10156,0.53906 -1.64062,1.57031 -1.64062,3.09375 0,1.00781 0.35156,2.22656 1.03125,3.67969 0.58594,1.14844 1.21875,1.73437 1.85156,1.75781 0.58594,0 1.125,-0.32812 1.66406,-0.96094 0.51563,-0.63281 1.00782,-1.40625 1.45313,-2.34375 0.44531,-0.91406 0.84375,-1.75781 1.17187,-2.55468 0.30469,-0.77344 0.51563,-1.21875 0.58594,-1.28907 0.0703,-0.0703 0.0937,-0.11718 0.11719,-0.11718 0.0469,0 0.0703,0.0937 0.0703,0.25781 0,0.21094 -0.0234,0.5625 -0.0937,1.05469 -0.11719,1.00781 -0.16406,1.89843 -0.16406,2.67187 0,1.19531 0.14062,2.13281 0.39844,2.78906 0.39843,1.00782 0.89062,1.5 1.52343,1.5 z"
           id="path1150" />
        <path
           d="m 136.01367,541.56479 c 0.72656,0 1.38281,-0.39844 1.99219,-1.21875 0.67969,-0.89063 1.24219,-1.92188 1.64062,-3.07032 0.39844,-1.14843 0.60938,-2.0625 0.60938,-2.74218 -0.0234,-0.16407 -0.11719,-0.25782 -0.28125,-0.25782 -0.16406,0 -0.23438,0.0937 -0.23438,0.25782 0,1.03125 -0.60937,2.625 -1.42968,3.9375 -0.67969,1.125 -1.21875,1.6875 -1.61719,1.6875 -0.14063,0 -0.23438,-0.0703 -0.30469,-0.21094 -0.0703,-0.16406 -0.11719,-0.65625 -0.14062,-1.47656 -0.23438,-5.88282 -0.9375,-8.8125 -2.10938,-8.8125 -0.21094,0 -0.46875,0.0937 -0.75,0.30468 -0.77344,0.58594 -1.78125,2.4375 -3.04687,5.55469 -0.60938,1.54688 -0.96094,2.32031 -1.07813,2.32031 -0.0234,0 -0.0469,-0.0469 -0.0469,-0.11718 0,-0.21094 0.0234,-0.60938 0.0937,-1.14844 0.0937,-1.07813 0.14062,-1.99219 0.14062,-2.74219 0,-0.72656 -0.0703,-1.42969 -0.21094,-2.0625 -0.16406,-0.72656 -0.53906,-1.24219 -1.10156,-1.5 -0.16406,-0.0703 -0.35156,-0.0937 -0.53906,-0.0937 -0.375,0 -0.77344,0.14063 -1.19531,0.39844 -0.77344,0.49219 -1.17188,1.42969 -1.17188,2.8125 0,1.54687 0.28125,2.88281 0.84375,4.00781 0.72656,1.45313 1.54688,2.17969 2.48438,2.17969 0.72656,0 1.33593,-0.63281 1.82812,-1.92188 0.63281,-1.94531 1.38281,-3.63281 2.22656,-5.10937 0.35157,-0.58594 0.58594,-0.89063 0.72657,-0.89063 0.0937,0 0.14062,0.0937 0.14062,0.30469 0,0.30469 -0.0937,0.86719 -0.25781,1.66406 -0.14063,0.63282 -0.21094,1.35938 -0.21094,2.13282 0,1.54687 0.28125,2.90625 0.82031,4.07812 0.42188,0.9375 1.05469,1.5 1.92188,1.71094 z"
           id="path1152" />
        <path
           d="m 141.47461,529.4476 c 0.63281,0 1.03125,-0.30469 1.19531,-0.91406 0.0234,-0.16407 0.0469,-0.32813 0.0469,-0.46875 0,-0.84375 -0.60938,-1.19532 -1.24219,-1.19532 -0.11719,0 -0.23438,0.0234 -0.35156,0.0469 -0.70313,0.14062 -1.05469,0.51562 -1.05469,1.10156 0,0.30469 0.14062,0.63281 0.39844,1.03125 0.30468,0.25781 0.63281,0.39844 1.00781,0.39844 z m 1.05469,12.25781 c 0.53906,0 1.10156,-0.30469 1.73437,-0.89062 0.9375,-0.91407 1.89844,-2.90625 2.90625,-6 0.0703,-0.23438 0.11719,-0.42188 0.11719,-0.53907 0,-0.21093 -0.0469,-0.30468 -0.16406,-0.30468 -0.21094,0 -0.65625,0.82031 -1.33594,2.48437 -0.91406,2.34375 -1.59375,3.51563 -2.03906,3.51563 -0.35157,0 -0.5625,-0.82032 -0.67969,-2.46094 -0.16406,-2.74219 -0.23438,-4.3125 -0.23438,-4.71094 v -0.14062 c 0.0234,0 0.0234,0.0703 0.0469,0.1875 -0.0937,-1.28907 -0.65625,-1.94532 -1.6875,-1.94532 -0.44531,0 -0.86719,0.23438 -1.28906,0.72657 -0.53907,0.63281 -0.82032,1.875 -0.82032,3.72656 0,1.24219 0.28125,2.50781 0.82032,3.75 0.72656,1.73437 1.59375,2.60156 2.625,2.60156 z"
           id="path1154" />
        <path
           d="m 149.30273,541.14291 c 0.79688,-0.0234 1.52344,-0.375 2.15625,-1.00781 0.63282,-0.63281 1.19532,-1.40625 1.64063,-2.29688 0.44531,-0.89062 0.77344,-1.71093 1.03125,-2.4375 0.23437,-0.72656 0.35156,-1.19531 0.35156,-1.40625 -0.0234,-0.39843 -0.0703,-0.58593 -0.14062,-0.58593 -0.11719,0 -0.375,0.51562 -0.77344,1.52343 -0.42188,1.03125 -0.96094,2.10938 -1.61719,3.25782 -0.65625,1.125 -1.40625,1.78125 -2.25,1.94531 -1.05469,-0.0234 -1.57031,-0.84375 -1.57031,-2.4375 0,-0.58594 0.14062,-1.17188 0.39844,-1.80469 1.05468,-2.15625 1.66406,-2.01562 1.92187,-2.01562 0.21094,0 0.375,0.0703 0.5625,0.0703 0.32813,0 0.63281,-0.21094 0.89063,-0.65625 0.16406,-0.39844 0.25781,-0.75 0.25781,-1.07813 0,-0.51562 -0.1875,-0.96093 -0.58594,-1.35937 -0.58594,-0.58594 -1.28906,-0.86719 -2.13281,-0.86719 -1.21875,0 -2.15625,0.70313 -2.83594,2.10938 -0.30469,0.82031 -0.46875,1.75781 -0.46875,2.78906 0,1.6875 0.35156,3.21094 1.03125,4.54687 0.53906,1.05469 1.26563,1.64063 2.13281,1.71094 z"
           id="path1156" />
        <path
           d="m 157.62305,540.29916 c 1.125,0 2.0625,-0.82031 2.8125,-2.4375 0.35156,-0.91406 0.5625,-1.59375 0.60937,-2.08594 l -0.0234,-0.14062 c 0.0703,0.0703 0.25782,0.0937 0.58594,0.0937 0.1875,0 0.46875,-0.0234 0.84375,-0.0937 1.99219,-0.44531 1.89844,-0.84375 1.89844,-0.91406 0,-0.16407 -0.0937,-0.23438 -0.28125,-0.23438 -0.0703,0 -0.14063,0.0234 -0.25781,0.0703 -1.00782,0.375 -1.75782,0.5625 -2.25,0.5625 -0.32813,0 -0.51563,-0.14062 -0.53907,-0.39843 -0.0234,-1.85157 -0.58593,-2.67188 -1.17187,-3 -0.58594,-0.32813 -1.17188,-0.30469 -1.28906,-0.51563 -0.375,-0.86719 -1.03125,-1.3125 -1.96875,-1.33594 -0.89063,0 -1.66407,0.44532 -2.34375,1.33594 -0.49219,0.63281 -0.72657,1.52344 -0.72657,2.625 0,0.49219 0.0469,1.05469 0.14063,1.64063 0.32812,1.64062 0.86719,2.85937 1.64062,3.65625 0.77344,0.77343 1.54688,1.17187 2.32032,1.17187 z m 2.53125,-5.74219 c -0.11719,0 -0.42188,-0.30468 -0.89063,-0.91406 -0.32812,-0.42187 -0.49219,-0.77344 -0.49219,-1.07812 0,-0.28125 0.11719,-0.42188 0.35157,-0.42188 0.23437,0 0.49218,0.25781 0.77343,0.79688 0.25782,0.53906 0.39844,1.00781 0.39844,1.38281 0,0.16406 -0.0469,0.23437 -0.14062,0.23437 z m -1.99219,3.89063 c -0.35156,0 -0.53906,-0.23438 -0.53906,-0.72656 0,-0.28125 0.0469,-0.65625 0.16406,-1.10157 0.49219,-1.89843 0.58594,-2.69531 0.67969,-2.69531 0.0469,0 0.11718,0.0703 0.21093,0.1875 0.11719,0.21094 0.35157,0.46875 0.70313,0.79688 0.39844,0.375 0.60937,0.77343 0.60937,1.21875 0,0.14062 -0.0234,0.28125 -0.0703,0.42187 -0.16406,0.60938 -0.42187,1.07813 -0.79687,1.40625 -0.39844,0.32813 -0.70313,0.49219 -0.96094,0.49219 z"
           id="path1158" />
        <path
           d="m 167.04492,539.31479 c 1.00781,-0.11719 1.85156,-1.47657 2.48438,-4.10157 0.25781,-1.07812 0.44531,-2.08593 0.60937,-3 0.28125,-1.38281 0.46875,-2.08593 0.5625,-2.08593 0.0234,0 0.0469,0.0234 0.0703,0.0469 0.42188,0.58594 0.77344,0.89063 1.05469,0.91406 0.25781,0.0234 0.42188,0.0234 0.49219,0.0234 0.39844,0 0.72656,-0.11719 0.98437,-0.375 0.16407,-0.16406 0.25782,-0.35156 0.25782,-0.5625 0,-0.14062 -0.0469,-0.30469 -0.11719,-0.46875 -0.1875,-0.35156 -0.30469,-0.35156 -0.32813,-0.35156 -0.0937,0 -0.1875,0.0937 -0.30468,0.25781 -0.25782,0.30469 -0.53907,0.46875 -0.82032,0.46875 -0.21093,0 -0.44531,-0.0703 -0.72656,-0.23437 -0.1875,-0.11719 -0.35156,-0.16407 -0.51562,-0.16407 -0.49219,0 -0.86719,0.91407 -1.17188,2.74219 -0.1875,1.38281 -0.58594,2.78906 -1.19531,4.24219 -0.32813,0.67969 -0.53906,1.00781 -0.65625,1.00781 -0.0234,0 -0.0469,-0.0937 -0.0469,-0.28125 0,-0.30469 0.0469,-0.84375 0.16407,-1.61719 0.25781,-1.71093 0.375,-3.02343 0.375,-3.9375 0,-0.53906 -0.0469,-1.05468 -0.11719,-1.5 -0.11719,-0.77343 -0.32813,-1.21875 -0.63281,-1.33593 -0.30469,-0.0937 -0.51563,-0.14063 -0.63282,-0.14063 -0.49218,0 -1.19531,0.32813 -2.08593,1.00781 -1.03125,0.89063 -1.54688,2.08594 -1.54688,3.58594 0,1.47656 0.35156,2.83594 1.07813,4.03125 0.75,1.19531 1.66406,1.80469 2.76562,1.82813 z"
           id="path1160" />
        <path
           d="m 186.07617,541.56479 c 0.72656,0 1.38281,-0.39844 1.99219,-1.21875 0.67969,-0.89063 1.24219,-1.92188 1.64062,-3.07032 0.39844,-1.14843 0.60938,-2.0625 0.60938,-2.74218 -0.0234,-0.16407 -0.11719,-0.25782 -0.28125,-0.25782 -0.16406,0 -0.23438,0.0937 -0.23438,0.25782 0,1.03125 -0.60937,2.625 -1.42968,3.9375 -0.67969,1.125 -1.21875,1.6875 -1.61719,1.6875 -0.14063,0 -0.23438,-0.0703 -0.30469,-0.21094 -0.0703,-0.16406 -0.11719,-0.65625 -0.14062,-1.47656 -0.23438,-5.88282 -0.9375,-8.8125 -2.10938,-8.8125 -0.21094,0 -0.46875,0.0937 -0.75,0.30468 -0.77344,0.58594 -1.78125,2.4375 -3.04687,5.55469 -0.60938,1.54688 -0.96094,2.32031 -1.07813,2.32031 -0.0234,0 -0.0469,-0.0469 -0.0469,-0.11718 0,-0.21094 0.0234,-0.60938 0.0937,-1.14844 0.0937,-1.07813 0.14062,-1.99219 0.14062,-2.74219 0,-0.72656 -0.0703,-1.42969 -0.21094,-2.0625 -0.16406,-0.72656 -0.53906,-1.24219 -1.10156,-1.5 -0.16406,-0.0703 -0.35156,-0.0937 -0.53906,-0.0937 -0.375,0 -0.77344,0.14063 -1.19531,0.39844 -0.77344,0.49219 -1.17188,1.42969 -1.17188,2.8125 0,1.54687 0.28125,2.88281 0.84375,4.00781 0.72656,1.45313 1.54688,2.17969 2.48438,2.17969 0.72656,0 1.33593,-0.63281 1.82812,-1.92188 0.63281,-1.94531 1.38281,-3.63281 2.22656,-5.10937 0.35157,-0.58594 0.58594,-0.89063 0.72657,-0.89063 0.0937,0 0.14062,0.0937 0.14062,0.30469 0,0.30469 -0.0937,0.86719 -0.25781,1.66406 -0.14063,0.63282 -0.21094,1.35938 -0.21094,2.13282 0,1.54687 0.28125,2.90625 0.82031,4.07812 0.42188,0.9375 1.05469,1.5 1.92188,1.71094 z"
           id="path1162" />
        <path
           d="m 192.7793,543.86166 c 1.38281,0 2.08593,-0.86719 2.08593,-2.60156 0,-0.96094 -0.25781,-2.10938 -0.77343,-3.44531 0.58593,-0.5625 1.47656,-1.21875 2.64843,-1.99219 1.17188,-0.77344 2.17969,-1.24219 3.02344,-1.42969 0.14063,-0.0234 0.21094,-0.0937 0.21094,-0.25781 0,-0.23438 -0.11719,-0.35156 -0.375,-0.35156 -1.07813,0.25781 -2.48438,1.05468 -4.24219,2.34375 -0.86719,0.63281 -1.35937,0.9375 -1.5,0.9375 -0.0703,0 -0.0937,-0.0234 -0.11719,-0.0703 -0.49218,-1.14843 -0.72656,-2.10937 -0.72656,-2.85937 0,-0.91406 0.16406,-1.45313 0.46875,-1.64063 0.0703,0 0.14063,-0.0469 0.21094,-0.11718 0.35156,-0.23438 0.51562,-0.63282 0.51562,-1.21875 0,-0.53907 -0.1875,-0.96094 -0.5625,-1.28907 -0.30468,-0.25781 -0.75,-0.375 -1.35937,-0.375 -0.96094,0 -1.71094,0.42188 -2.27344,1.26563 -0.5625,0.84375 -0.84375,1.71094 -0.84375,2.60156 0,0.39844 0.0469,0.82031 0.14063,1.26563 0.28125,1.45312 1.28906,2.88281 3.04687,4.3125 -0.89062,1.26562 -1.33594,2.29687 -1.33594,3.11718 0,0.21094 0.0234,0.39844 0.0937,0.5625 0.28125,0.82032 0.84375,1.24219 1.66407,1.24219 z m -0.21094,-1.00781 c -0.44531,0 -0.67969,-0.32813 -0.67969,-0.96094 0,-0.25781 0,-0.46875 0.16406,-0.9375 0.25782,-0.77344 0.58594,-1.3125 0.70313,-1.3125 0.0234,0 0.0469,0.0234 0.0703,0.0469 0.42188,0.70312 0.63281,1.3125 0.63281,1.80468 0,0.91407 -0.30468,1.35938 -0.89062,1.35938 z"
           id="path1164" />
      </g>
      <g
         aria-label="unicorns"
         transform="matrix(1.0718382,0,0,1.2088762,-109.77983,-562.30589)"
         id="text133-7-08"
         style="font-size:48px;line-height:1.25;font-family:'Sarah Jason';-inkscape-font-specification:'Sarah Jason, Normal';white-space:pre;shape-inside:url(#rect143-3-15);fill:#e702c1;fill-opacity:0.4;filter:url(#filter10457)">
        <path
           d="m 123.5918,539.90072 c 0.70312,-0.0937 1.33593,-0.63281 1.92187,-1.61718 0.58594,-0.98438 0.89063,-2.27344 0.91406,-3.86719 -0.0234,-0.39844 -0.0703,-0.58594 -0.14062,-0.58594 -0.0937,0 -0.375,0.53906 -0.82031,1.61719 -0.30469,0.72656 -0.60938,1.40625 -0.9375,2.03906 -0.32813,0.63281 -0.63282,0.98438 -0.9375,1.00781 -0.21094,-0.0469 -0.375,-0.375 -0.51563,-0.96093 -0.30469,-1.21875 -0.53906,-3 -0.65625,-4.40625 -0.0703,-0.77344 -0.14062,-1.26563 -0.1875,-1.42969 -0.16406,-0.375 -0.375,-0.5625 -0.58594,-0.5625 -0.60937,0 -1.57031,1.35937 -2.88281,4.05469 -0.44531,0.89062 -0.70312,1.33593 -0.77344,1.33593 v -0.42187 c 0.1875,-2.22656 0.28125,-3.5625 0.28125,-4.05469 0,-0.82031 -0.23437,-1.38281 -0.72656,-1.6875 -0.30469,-0.21094 -0.63281,-0.30469 -0.98437,-0.30469 -0.35157,0 -0.70313,0.0937 -1.10157,0.30469 -1.10156,0.53906 -1.64062,1.57031 -1.64062,3.09375 0,1.00781 0.35156,2.22656 1.03125,3.67969 0.58594,1.14844 1.21875,1.73437 1.85156,1.75781 0.58594,0 1.125,-0.32812 1.66406,-0.96094 0.51563,-0.63281 1.00782,-1.40625 1.45313,-2.34375 0.44531,-0.91406 0.84375,-1.75781 1.17187,-2.55468 0.30469,-0.77344 0.51563,-1.21875 0.58594,-1.28907 0.0703,-0.0703 0.0937,-0.11718 0.11719,-0.11718 0.0469,0 0.0703,0.0937 0.0703,0.25781 0,0.21094 -0.0234,0.5625 -0.0937,1.05469 -0.11719,1.00781 -0.16406,1.89843 -0.16406,2.67187 0,1.19531 0.14062,2.13281 0.39844,2.78906 0.39843,1.00782 0.89062,1.5 1.52343,1.5 z"
           id="path1133" />
        <path
           d="m 136.01367,541.56479 c 0.72656,0 1.38281,-0.39844 1.99219,-1.21875 0.67969,-0.89063 1.24219,-1.92188 1.64062,-3.07032 0.39844,-1.14843 0.60938,-2.0625 0.60938,-2.74218 -0.0234,-0.16407 -0.11719,-0.25782 -0.28125,-0.25782 -0.16406,0 -0.23438,0.0937 -0.23438,0.25782 0,1.03125 -0.60937,2.625 -1.42968,3.9375 -0.67969,1.125 -1.21875,1.6875 -1.61719,1.6875 -0.14063,0 -0.23438,-0.0703 -0.30469,-0.21094 -0.0703,-0.16406 -0.11719,-0.65625 -0.14062,-1.47656 -0.23438,-5.88282 -0.9375,-8.8125 -2.10938,-8.8125 -0.21094,0 -0.46875,0.0937 -0.75,0.30468 -0.77344,0.58594 -1.78125,2.4375 -3.04687,5.55469 -0.60938,1.54688 -0.96094,2.32031 -1.07813,2.32031 -0.0234,0 -0.0469,-0.0469 -0.0469,-0.11718 0,-0.21094 0.0234,-0.60938 0.0937,-1.14844 0.0937,-1.07813 0.14062,-1.99219 0.14062,-2.74219 0,-0.72656 -0.0703,-1.42969 -0.21094,-2.0625 -0.16406,-0.72656 -0.53906,-1.24219 -1.10156,-1.5 -0.16406,-0.0703 -0.35156,-0.0937 -0.53906,-0.0937 -0.375,0 -0.77344,0.14063 -1.19531,0.39844 -0.77344,0.49219 -1.17188,1.42969 -1.17188,2.8125 0,1.54687 0.28125,2.88281 0.84375,4.00781 0.72656,1.45313 1.54688,2.17969 2.48438,2.17969 0.72656,0 1.33593,-0.63281 1.82812,-1.92188 0.63281,-1.94531 1.38281,-3.63281 2.22656,-5.10937 0.35157,-0.58594 0.58594,-0.89063 0.72657,-0.89063 0.0937,0 0.14062,0.0937 0.14062,0.30469 0,0.30469 -0.0937,0.86719 -0.25781,1.66406 -0.14063,0.63282 -0.21094,1.35938 -0.21094,2.13282 0,1.54687 0.28125,2.90625 0.82031,4.07812 0.42188,0.9375 1.05469,1.5 1.92188,1.71094 z"
           id="path1135" />
        <path
           d="m 141.47461,529.4476 c 0.63281,0 1.03125,-0.30469 1.19531,-0.91406 0.0234,-0.16407 0.0469,-0.32813 0.0469,-0.46875 0,-0.84375 -0.60938,-1.19532 -1.24219,-1.19532 -0.11719,0 -0.23438,0.0234 -0.35156,0.0469 -0.70313,0.14062 -1.05469,0.51562 -1.05469,1.10156 0,0.30469 0.14062,0.63281 0.39844,1.03125 0.30468,0.25781 0.63281,0.39844 1.00781,0.39844 z m 1.05469,12.25781 c 0.53906,0 1.10156,-0.30469 1.73437,-0.89062 0.9375,-0.91407 1.89844,-2.90625 2.90625,-6 0.0703,-0.23438 0.11719,-0.42188 0.11719,-0.53907 0,-0.21093 -0.0469,-0.30468 -0.16406,-0.30468 -0.21094,0 -0.65625,0.82031 -1.33594,2.48437 -0.91406,2.34375 -1.59375,3.51563 -2.03906,3.51563 -0.35157,0 -0.5625,-0.82032 -0.67969,-2.46094 -0.16406,-2.74219 -0.23438,-4.3125 -0.23438,-4.71094 v -0.14062 c 0.0234,0 0.0234,0.0703 0.0469,0.1875 -0.0937,-1.28907 -0.65625,-1.94532 -1.6875,-1.94532 -0.44531,0 -0.86719,0.23438 -1.28906,0.72657 -0.53907,0.63281 -0.82032,1.875 -0.82032,3.72656 0,1.24219 0.28125,2.50781 0.82032,3.75 0.72656,1.73437 1.59375,2.60156 2.625,2.60156 z"
           id="path1137" />
        <path
           d="m 149.30273,541.14291 c 0.79688,-0.0234 1.52344,-0.375 2.15625,-1.00781 0.63282,-0.63281 1.19532,-1.40625 1.64063,-2.29688 0.44531,-0.89062 0.77344,-1.71093 1.03125,-2.4375 0.23437,-0.72656 0.35156,-1.19531 0.35156,-1.40625 -0.0234,-0.39843 -0.0703,-0.58593 -0.14062,-0.58593 -0.11719,0 -0.375,0.51562 -0.77344,1.52343 -0.42188,1.03125 -0.96094,2.10938 -1.61719,3.25782 -0.65625,1.125 -1.40625,1.78125 -2.25,1.94531 -1.05469,-0.0234 -1.57031,-0.84375 -1.57031,-2.4375 0,-0.58594 0.14062,-1.17188 0.39844,-1.80469 1.05468,-2.15625 1.66406,-2.01562 1.92187,-2.01562 0.21094,0 0.375,0.0703 0.5625,0.0703 0.32813,0 0.63281,-0.21094 0.89063,-0.65625 0.16406,-0.39844 0.25781,-0.75 0.25781,-1.07813 0,-0.51562 -0.1875,-0.96093 -0.58594,-1.35937 -0.58594,-0.58594 -1.28906,-0.86719 -2.13281,-0.86719 -1.21875,0 -2.15625,0.70313 -2.83594,2.10938 -0.30469,0.82031 -0.46875,1.75781 -0.46875,2.78906 0,1.6875 0.35156,3.21094 1.03125,4.54687 0.53906,1.05469 1.26563,1.64063 2.13281,1.71094 z"
           id="path1139" />
        <path
           d="m 157.62305,540.29916 c 1.125,0 2.0625,-0.82031 2.8125,-2.4375 0.35156,-0.91406 0.5625,-1.59375 0.60937,-2.08594 l -0.0234,-0.14062 c 0.0703,0.0703 0.25782,0.0937 0.58594,0.0937 0.1875,0 0.46875,-0.0234 0.84375,-0.0937 1.99219,-0.44531 1.89844,-0.84375 1.89844,-0.91406 0,-0.16407 -0.0937,-0.23438 -0.28125,-0.23438 -0.0703,0 -0.14063,0.0234 -0.25781,0.0703 -1.00782,0.375 -1.75782,0.5625 -2.25,0.5625 -0.32813,0 -0.51563,-0.14062 -0.53907,-0.39843 -0.0234,-1.85157 -0.58593,-2.67188 -1.17187,-3 -0.58594,-0.32813 -1.17188,-0.30469 -1.28906,-0.51563 -0.375,-0.86719 -1.03125,-1.3125 -1.96875,-1.33594 -0.89063,0 -1.66407,0.44532 -2.34375,1.33594 -0.49219,0.63281 -0.72657,1.52344 -0.72657,2.625 0,0.49219 0.0469,1.05469 0.14063,1.64063 0.32812,1.64062 0.86719,2.85937 1.64062,3.65625 0.77344,0.77343 1.54688,1.17187 2.32032,1.17187 z m 2.53125,-5.74219 c -0.11719,0 -0.42188,-0.30468 -0.89063,-0.91406 -0.32812,-0.42187 -0.49219,-0.77344 -0.49219,-1.07812 0,-0.28125 0.11719,-0.42188 0.35157,-0.42188 0.23437,0 0.49218,0.25781 0.77343,0.79688 0.25782,0.53906 0.39844,1.00781 0.39844,1.38281 0,0.16406 -0.0469,0.23437 -0.14062,0.23437 z m -1.99219,3.89063 c -0.35156,0 -0.53906,-0.23438 -0.53906,-0.72656 0,-0.28125 0.0469,-0.65625 0.16406,-1.10157 0.49219,-1.89843 0.58594,-2.69531 0.67969,-2.69531 0.0469,0 0.11718,0.0703 0.21093,0.1875 0.11719,0.21094 0.35157,0.46875 0.70313,0.79688 0.39844,0.375 0.60937,0.77343 0.60937,1.21875 0,0.14062 -0.0234,0.28125 -0.0703,0.42187 -0.16406,0.60938 -0.42187,1.07813 -0.79687,1.40625 -0.39844,0.32813 -0.70313,0.49219 -0.96094,0.49219 z"
           id="path1141" />
        <path
           d="m 167.04492,539.31479 c 1.00781,-0.11719 1.85156,-1.47657 2.48438,-4.10157 0.25781,-1.07812 0.44531,-2.08593 0.60937,-3 0.28125,-1.38281 0.46875,-2.08593 0.5625,-2.08593 0.0234,0 0.0469,0.0234 0.0703,0.0469 0.42188,0.58594 0.77344,0.89063 1.05469,0.91406 0.25781,0.0234 0.42188,0.0234 0.49219,0.0234 0.39844,0 0.72656,-0.11719 0.98437,-0.375 0.16407,-0.16406 0.25782,-0.35156 0.25782,-0.5625 0,-0.14062 -0.0469,-0.30469 -0.11719,-0.46875 -0.1875,-0.35156 -0.30469,-0.35156 -0.32813,-0.35156 -0.0937,0 -0.1875,0.0937 -0.30468,0.25781 -0.25782,0.30469 -0.53907,0.46875 -0.82032,0.46875 -0.21093,0 -0.44531,-0.0703 -0.72656,-0.23437 -0.1875,-0.11719 -0.35156,-0.16407 -0.51562,-0.16407 -0.49219,0 -0.86719,0.91407 -1.17188,2.74219 -0.1875,1.38281 -0.58594,2.78906 -1.19531,4.24219 -0.32813,0.67969 -0.53906,1.00781 -0.65625,1.00781 -0.0234,0 -0.0469,-0.0937 -0.0469,-0.28125 0,-0.30469 0.0469,-0.84375 0.16407,-1.61719 0.25781,-1.71093 0.375,-3.02343 0.375,-3.9375 0,-0.53906 -0.0469,-1.05468 -0.11719,-1.5 -0.11719,-0.77343 -0.32813,-1.21875 -0.63281,-1.33593 -0.30469,-0.0937 -0.51563,-0.14063 -0.63282,-0.14063 -0.49218,0 -1.19531,0.32813 -2.08593,1.00781 -1.03125,0.89063 -1.54688,2.08594 -1.54688,3.58594 0,1.47656 0.35156,2.83594 1.07813,4.03125 0.75,1.19531 1.66406,1.80469 2.76562,1.82813 z"
           id="path1143" />
        <path
           d="m 186.07617,541.56479 c 0.72656,0 1.38281,-0.39844 1.99219,-1.21875 0.67969,-0.89063 1.24219,-1.92188 1.64062,-3.07032 0.39844,-1.14843 0.60938,-2.0625 0.60938,-2.74218 -0.0234,-0.16407 -0.11719,-0.25782 -0.28125,-0.25782 -0.16406,0 -0.23438,0.0937 -0.23438,0.25782 0,1.03125 -0.60937,2.625 -1.42968,3.9375 -0.67969,1.125 -1.21875,1.6875 -1.61719,1.6875 -0.14063,0 -0.23438,-0.0703 -0.30469,-0.21094 -0.0703,-0.16406 -0.11719,-0.65625 -0.14062,-1.47656 -0.23438,-5.88282 -0.9375,-8.8125 -2.10938,-8.8125 -0.21094,0 -0.46875,0.0937 -0.75,0.30468 -0.77344,0.58594 -1.78125,2.4375 -3.04687,5.55469 -0.60938,1.54688 -0.96094,2.32031 -1.07813,2.32031 -0.0234,0 -0.0469,-0.0469 -0.0469,-0.11718 0,-0.21094 0.0234,-0.60938 0.0937,-1.14844 0.0937,-1.07813 0.14062,-1.99219 0.14062,-2.74219 0,-0.72656 -0.0703,-1.42969 -0.21094,-2.0625 -0.16406,-0.72656 -0.53906,-1.24219 -1.10156,-1.5 -0.16406,-0.0703 -0.35156,-0.0937 -0.53906,-0.0937 -0.375,0 -0.77344,0.14063 -1.19531,0.39844 -0.77344,0.49219 -1.17188,1.42969 -1.17188,2.8125 0,1.54687 0.28125,2.88281 0.84375,4.00781 0.72656,1.45313 1.54688,2.17969 2.48438,2.17969 0.72656,0 1.33593,-0.63281 1.82812,-1.92188 0.63281,-1.94531 1.38281,-3.63281 2.22656,-5.10937 0.35157,-0.58594 0.58594,-0.89063 0.72657,-0.89063 0.0937,0 0.14062,0.0937 0.14062,0.30469 0,0.30469 -0.0937,0.86719 -0.25781,1.66406 -0.14063,0.63282 -0.21094,1.35938 -0.21094,2.13282 0,1.54687 0.28125,2.90625 0.82031,4.07812 0.42188,0.9375 1.05469,1.5 1.92188,1.71094 z"
           id="path1145" />
        <path
           d="m 192.7793,543.86166 c 1.38281,0 2.08593,-0.86719 2.08593,-2.60156 0,-0.96094 -0.25781,-2.10938 -0.77343,-3.44531 0.58593,-0.5625 1.47656,-1.21875 2.64843,-1.99219 1.17188,-0.77344 2.17969,-1.24219 3.02344,-1.42969 0.14063,-0.0234 0.21094,-0.0937 0.21094,-0.25781 0,-0.23438 -0.11719,-0.35156 -0.375,-0.35156 -1.07813,0.25781 -2.48438,1.05468 -4.24219,2.34375 -0.86719,0.63281 -1.35937,0.9375 -1.5,0.9375 -0.0703,0 -0.0937,-0.0234 -0.11719,-0.0703 -0.49218,-1.14843 -0.72656,-2.10937 -0.72656,-2.85937 0,-0.91406 0.16406,-1.45313 0.46875,-1.64063 0.0703,0 0.14063,-0.0469 0.21094,-0.11718 0.35156,-0.23438 0.51562,-0.63282 0.51562,-1.21875 0,-0.53907 -0.1875,-0.96094 -0.5625,-1.28907 -0.30468,-0.25781 -0.75,-0.375 -1.35937,-0.375 -0.96094,0 -1.71094,0.42188 -2.27344,1.26563 -0.5625,0.84375 -0.84375,1.71094 -0.84375,2.60156 0,0.39844 0.0469,0.82031 0.14063,1.26563 0.28125,1.45312 1.28906,2.88281 3.04687,4.3125 -0.89062,1.26562 -1.33594,2.29687 -1.33594,3.11718 0,0.21094 0.0234,0.39844 0.0937,0.5625 0.28125,0.82032 0.84375,1.24219 1.66407,1.24219 z m -0.21094,-1.00781 c -0.44531,0 -0.67969,-0.32813 -0.67969,-0.96094 0,-0.25781 0,-0.46875 0.16406,-0.9375 0.25782,-0.77344 0.58594,-1.3125 0.70313,-1.3125 0.0234,0 0.0469,0.0234 0.0703,0.0469 0.42188,0.70312 0.63281,1.3125 0.63281,1.80468 0,0.91407 -0.30468,1.35938 -0.89062,1.35938 z"
           id="path1147" />
      </g>
      <g
         aria-label="code"
         transform="matrix(1.1187131,0,0,1.1492396,-208.5891,-630.68848)"
         id="text139-4"
         style="font-size:48px;line-height:1.25;font-family:'Sarah Jason';-inkscape-font-specification:'Sarah Jason, Normal';white-space:pre;shape-inside:url(#rect145-9);display:inline;fill:#e702c1;stroke-width:5.66929;filter:url(#filter10445)">
        <path
           d="m 306.92578,640.34994 c 0.79688,-0.0234 1.52344,-0.375 2.15625,-1.00781 0.63281,-0.63281 1.19531,-1.40625 1.64063,-2.29687 0.44531,-0.89063 0.77343,-1.71094 1.03125,-2.4375 0.23437,-0.72657 0.35156,-1.19532 0.35156,-1.40625 -0.0234,-0.39844 -0.0703,-0.58594 -0.14063,-0.58594 -0.11718,0 -0.375,0.51562 -0.77343,1.52344 -0.42188,1.03125 -0.96094,2.10937 -1.61719,3.25781 -0.65625,1.125 -1.40625,1.78125 -2.25,1.94531 -1.05469,-0.0234 -1.57031,-0.84375 -1.57031,-2.4375 0,-0.58594 0.14062,-1.17187 0.39843,-1.80469 1.05469,-2.15625 1.66407,-2.01562 1.92188,-2.01562 0.21094,0 0.375,0.0703 0.5625,0.0703 0.32812,0 0.63281,-0.21094 0.89062,-0.65625 0.16407,-0.39844 0.25782,-0.75 0.25782,-1.07812 0,-0.51563 -0.1875,-0.96094 -0.58594,-1.35938 -0.58594,-0.58594 -1.28906,-0.86719 -2.13281,-0.86719 -1.21875,0 -2.15625,0.70313 -2.83594,2.10938 -0.30469,0.82031 -0.46875,1.75781 -0.46875,2.78906 0,1.6875 0.35156,3.21094 1.03125,4.54688 0.53906,1.05468 1.26562,1.64062 2.13281,1.71093 z"
           id="path1124" />
        <path
           d="m 315.24609,639.50619 c 1.125,0 2.0625,-0.82031 2.8125,-2.4375 0.35157,-0.91406 0.5625,-1.59375 0.60938,-2.08593 l -0.0234,-0.14063 c 0.0703,0.0703 0.25781,0.0937 0.58594,0.0937 0.1875,0 0.46875,-0.0234 0.84375,-0.0937 1.99219,-0.44531 1.89844,-0.84375 1.89844,-0.91406 0,-0.16406 -0.0937,-0.23438 -0.28125,-0.23438 -0.0703,0 -0.14063,0.0234 -0.25782,0.0703 -1.00781,0.375 -1.75781,0.5625 -2.25,0.5625 -0.32812,0 -0.51562,-0.14063 -0.53906,-0.39844 -0.0234,-1.85156 -0.58594,-2.67188 -1.17187,-3 -0.58594,-0.32813 -1.17188,-0.30469 -1.28907,-0.51563 -0.375,-0.86718 -1.03125,-1.3125 -1.96875,-1.33593 -0.89062,0 -1.66406,0.44531 -2.34375,1.33593 -0.49218,0.63282 -0.72656,1.52344 -0.72656,2.625 0,0.49219 0.0469,1.05469 0.14063,1.64063 0.32812,1.64062 0.86718,2.85937 1.64062,3.65625 0.77344,0.77344 1.54688,1.17187 2.32031,1.17187 z m 2.53125,-5.74218 c -0.11718,0 -0.42187,-0.30469 -0.89062,-0.91407 -0.32813,-0.42187 -0.49219,-0.77343 -0.49219,-1.07812 0,-0.28125 0.11719,-0.42188 0.35156,-0.42188 0.23438,0 0.49219,0.25782 0.77344,0.79688 0.25781,0.53906 0.39844,1.00781 0.39844,1.38281 0,0.16406 -0.0469,0.23438 -0.14063,0.23438 z m -1.99218,3.89062 c -0.35157,0 -0.53907,-0.23437 -0.53907,-0.72656 0,-0.28125 0.0469,-0.65625 0.16407,-1.10156 0.49218,-1.89844 0.58593,-2.69532 0.67968,-2.69532 0.0469,0 0.11719,0.0703 0.21094,0.1875 0.11719,0.21094 0.35156,0.46875 0.70313,0.79688 0.39843,0.375 0.60937,0.77344 0.60937,1.21875 0,0.14062 -0.0234,0.28125 -0.0703,0.42187 -0.16406,0.60938 -0.42188,1.07813 -0.79688,1.40625 -0.39843,0.32813 -0.70312,0.49219 -0.96093,0.49219 z"
           id="path1126" />
        <path
           d="m 333.48047,644.82651 c 0.60937,0 0.91406,-0.39844 0.91406,-1.19532 -0.1875,-0.39843 -0.35156,-0.79687 -0.46875,-1.19531 -0.42187,-1.28906 -0.63281,-3.39844 -0.63281,-6.28125 0,-3.35156 0.28125,-7.47656 0.84375,-12.32812 0.0703,-0.98438 0.11719,-1.875 0.11719,-2.64844 0,-1.73438 -0.1875,-3.02344 -0.53907,-3.84375 -0.21093,-0.49219 -0.49218,-0.75 -0.79687,-0.75 -1.45313,0 -3.1875,4.03125 -5.20313,12.07031 -0.375,1.47656 -0.46875,2.17969 -0.53906,2.17969 -0.0234,0 -0.0469,-0.0469 -0.0703,-0.16406 -0.11719,-0.58594 -0.42188,-1.05469 -0.9375,-1.42969 -0.32813,-0.21094 -0.77344,-0.35156 -1.35938,-0.375 -1.38281,0.0703 -2.36718,0.67969 -2.97656,1.875 -0.60937,1.19531 -0.91406,2.41406 -0.91406,3.63281 0,2.20313 0.77344,3.84375 2.32031,4.92188 0.32813,0.16406 0.63281,0.25781 0.91406,0.25781 1.125,0 2.10938,-1.54688 2.97657,-4.61719 0.44531,-1.57031 0.79687,-3.11719 1.10156,-4.64062 0.1875,-0.89063 0.35156,-1.66407 0.51562,-2.29688 -0.1875,1.75781 -0.28125,3.375 -0.28125,4.82813 0,1.80468 0.14063,3.39843 0.42188,4.75781 0.51562,2.46094 1.21875,4.26562 2.08594,5.4375 0.86718,1.14844 1.5,1.75781 1.875,1.78125 0.375,0.0234 0.58593,0.0234 0.63281,0.0234 z m -8.88281,-6.75 c -0.30469,0 -0.46875,-0.375 -0.46875,-1.10157 0,-1.21875 0.46875,-2.60156 1.38281,-4.14843 l 0.28125,0.0234 c 0.39844,0 0.72656,-0.16406 0.98437,-0.49218 0.0234,-0.0469 0.0469,-0.0703 0.0703,-0.0703 l -0.25782,1.125 c -0.67968,3.11719 -1.33593,4.66407 -1.99218,4.66407 z"
           id="path1128" />
        <path
           d="m 339.01172,639.24838 c 0.58594,0 1.17187,-0.1875 1.80469,-0.58594 1.33593,-0.96093 2.32031,-1.89843 2.95312,-2.8125 0.63281,-0.9375 0.96094,-1.54687 1.03125,-1.85156 0.0469,-0.30469 0.0703,-0.49219 0.0703,-0.5625 0,-0.11719 -0.0234,-0.16406 -0.0703,-0.16406 -0.0703,0 -0.16406,0.0703 -0.30469,0.23437 0,0.0703 -0.39843,0.65625 -1.19531,1.78125 -1.10156,1.57032 -2.15625,2.34375 -2.74219,2.34375 -0.9375,-0.0234 -1.40625,-0.63281 -1.40625,-1.82812 0,-0.375 0.0469,-0.82031 0.14063,-1.3125 0.60937,-0.21094 1.07812,-0.63281 1.38281,-1.28906 0.30469,-0.63282 0.46875,-1.28907 0.46875,-1.96875 0,-0.86719 -0.23437,-1.5 -0.67969,-1.94532 -0.39843,-0.30468 -0.82031,-0.46875 -1.3125,-0.46875 -1.61718,0 -2.78906,1.21875 -3.51562,3.65625 -0.16406,0.65625 -0.23438,1.28907 -0.23438,1.89844 0,0.77344 0.11719,1.47656 0.375,2.13281 0.70313,1.82813 1.78125,2.74219 3.23438,2.74219 z m 0.39844,-6.11719 c -0.0234,0 -0.0469,-0.0703 -0.0469,-0.21093 0,-0.30469 0.14063,-0.9375 0.44531,-1.875 0.11719,0 0.1875,0.28125 0.1875,0.84375 0,0.51562 -0.16406,0.91406 -0.51562,1.21875 z"
           id="path1130" />
      </g>
      <g
         aria-label="code"
         transform="matrix(1.1351776,0,0,1.1717999,-217.50723,-648.57514)"
         id="text139-4-3"
         style="font-size:48px;line-height:1.25;font-family:'Sarah Jason';-inkscape-font-specification:'Sarah Jason, Normal';white-space:pre;shape-inside:url(#rect145-9-8);display:inline;fill:#e702c1;fill-opacity:0.6;stroke-width:3.77953;filter:url(#filter10453)">
        <path
           d="m 306.92578,640.34994 c 0.79688,-0.0234 1.52344,-0.375 2.15625,-1.00781 0.63281,-0.63281 1.19531,-1.40625 1.64063,-2.29687 0.44531,-0.89063 0.77343,-1.71094 1.03125,-2.4375 0.23437,-0.72657 0.35156,-1.19532 0.35156,-1.40625 -0.0234,-0.39844 -0.0703,-0.58594 -0.14063,-0.58594 -0.11718,0 -0.375,0.51562 -0.77343,1.52344 -0.42188,1.03125 -0.96094,2.10937 -1.61719,3.25781 -0.65625,1.125 -1.40625,1.78125 -2.25,1.94531 -1.05469,-0.0234 -1.57031,-0.84375 -1.57031,-2.4375 0,-0.58594 0.14062,-1.17187 0.39843,-1.80469 1.05469,-2.15625 1.66407,-2.01562 1.92188,-2.01562 0.21094,0 0.375,0.0703 0.5625,0.0703 0.32812,0 0.63281,-0.21094 0.89062,-0.65625 0.16407,-0.39844 0.25782,-0.75 0.25782,-1.07812 0,-0.51563 -0.1875,-0.96094 -0.58594,-1.35938 -0.58594,-0.58594 -1.28906,-0.86719 -2.13281,-0.86719 -1.21875,0 -2.15625,0.70313 -2.83594,2.10938 -0.30469,0.82031 -0.46875,1.75781 -0.46875,2.78906 0,1.6875 0.35156,3.21094 1.03125,4.54688 0.53906,1.05468 1.26562,1.64062 2.13281,1.71093 z"
           id="path1115" />
        <path
           d="m 315.24609,639.50619 c 1.125,0 2.0625,-0.82031 2.8125,-2.4375 0.35157,-0.91406 0.5625,-1.59375 0.60938,-2.08593 l -0.0234,-0.14063 c 0.0703,0.0703 0.25781,0.0937 0.58594,0.0937 0.1875,0 0.46875,-0.0234 0.84375,-0.0937 1.99219,-0.44531 1.89844,-0.84375 1.89844,-0.91406 0,-0.16406 -0.0937,-0.23438 -0.28125,-0.23438 -0.0703,0 -0.14063,0.0234 -0.25782,0.0703 -1.00781,0.375 -1.75781,0.5625 -2.25,0.5625 -0.32812,0 -0.51562,-0.14063 -0.53906,-0.39844 -0.0234,-1.85156 -0.58594,-2.67188 -1.17187,-3 -0.58594,-0.32813 -1.17188,-0.30469 -1.28907,-0.51563 -0.375,-0.86718 -1.03125,-1.3125 -1.96875,-1.33593 -0.89062,0 -1.66406,0.44531 -2.34375,1.33593 -0.49218,0.63282 -0.72656,1.52344 -0.72656,2.625 0,0.49219 0.0469,1.05469 0.14063,1.64063 0.32812,1.64062 0.86718,2.85937 1.64062,3.65625 0.77344,0.77344 1.54688,1.17187 2.32031,1.17187 z m 2.53125,-5.74218 c -0.11718,0 -0.42187,-0.30469 -0.89062,-0.91407 -0.32813,-0.42187 -0.49219,-0.77343 -0.49219,-1.07812 0,-0.28125 0.11719,-0.42188 0.35156,-0.42188 0.23438,0 0.49219,0.25782 0.77344,0.79688 0.25781,0.53906 0.39844,1.00781 0.39844,1.38281 0,0.16406 -0.0469,0.23438 -0.14063,0.23438 z m -1.99218,3.89062 c -0.35157,0 -0.53907,-0.23437 -0.53907,-0.72656 0,-0.28125 0.0469,-0.65625 0.16407,-1.10156 0.49218,-1.89844 0.58593,-2.69532 0.67968,-2.69532 0.0469,0 0.11719,0.0703 0.21094,0.1875 0.11719,0.21094 0.35156,0.46875 0.70313,0.79688 0.39843,0.375 0.60937,0.77344 0.60937,1.21875 0,0.14062 -0.0234,0.28125 -0.0703,0.42187 -0.16406,0.60938 -0.42188,1.07813 -0.79688,1.40625 -0.39843,0.32813 -0.70312,0.49219 -0.96093,0.49219 z"
           id="path1117" />
        <path
           d="m 333.48047,644.82651 c 0.60937,0 0.91406,-0.39844 0.91406,-1.19532 -0.1875,-0.39843 -0.35156,-0.79687 -0.46875,-1.19531 -0.42187,-1.28906 -0.63281,-3.39844 -0.63281,-6.28125 0,-3.35156 0.28125,-7.47656 0.84375,-12.32812 0.0703,-0.98438 0.11719,-1.875 0.11719,-2.64844 0,-1.73438 -0.1875,-3.02344 -0.53907,-3.84375 -0.21093,-0.49219 -0.49218,-0.75 -0.79687,-0.75 -1.45313,0 -3.1875,4.03125 -5.20313,12.07031 -0.375,1.47656 -0.46875,2.17969 -0.53906,2.17969 -0.0234,0 -0.0469,-0.0469 -0.0703,-0.16406 -0.11719,-0.58594 -0.42188,-1.05469 -0.9375,-1.42969 -0.32813,-0.21094 -0.77344,-0.35156 -1.35938,-0.375 -1.38281,0.0703 -2.36718,0.67969 -2.97656,1.875 -0.60937,1.19531 -0.91406,2.41406 -0.91406,3.63281 0,2.20313 0.77344,3.84375 2.32031,4.92188 0.32813,0.16406 0.63281,0.25781 0.91406,0.25781 1.125,0 2.10938,-1.54688 2.97657,-4.61719 0.44531,-1.57031 0.79687,-3.11719 1.10156,-4.64062 0.1875,-0.89063 0.35156,-1.66407 0.51562,-2.29688 -0.1875,1.75781 -0.28125,3.375 -0.28125,4.82813 0,1.80468 0.14063,3.39843 0.42188,4.75781 0.51562,2.46094 1.21875,4.26562 2.08594,5.4375 0.86718,1.14844 1.5,1.75781 1.875,1.78125 0.375,0.0234 0.58593,0.0234 0.63281,0.0234 z m -8.88281,-6.75 c -0.30469,0 -0.46875,-0.375 -0.46875,-1.10157 0,-1.21875 0.46875,-2.60156 1.38281,-4.14843 l 0.28125,0.0234 c 0.39844,0 0.72656,-0.16406 0.98437,-0.49218 0.0234,-0.0469 0.0469,-0.0703 0.0703,-0.0703 l -0.25782,1.125 c -0.67968,3.11719 -1.33593,4.66407 -1.99218,4.66407 z"
           id="path1119" />
        <path
           d="m 339.01172,639.24838 c 0.58594,0 1.17187,-0.1875 1.80469,-0.58594 1.33593,-0.96093 2.32031,-1.89843 2.95312,-2.8125 0.63281,-0.9375 0.96094,-1.54687 1.03125,-1.85156 0.0469,-0.30469 0.0703,-0.49219 0.0703,-0.5625 0,-0.11719 -0.0234,-0.16406 -0.0703,-0.16406 -0.0703,0 -0.16406,0.0703 -0.30469,0.23437 0,0.0703 -0.39843,0.65625 -1.19531,1.78125 -1.10156,1.57032 -2.15625,2.34375 -2.74219,2.34375 -0.9375,-0.0234 -1.40625,-0.63281 -1.40625,-1.82812 0,-0.375 0.0469,-0.82031 0.14063,-1.3125 0.60937,-0.21094 1.07812,-0.63281 1.38281,-1.28906 0.30469,-0.63282 0.46875,-1.28907 0.46875,-1.96875 0,-0.86719 -0.23437,-1.5 -0.67969,-1.94532 -0.39843,-0.30468 -0.82031,-0.46875 -1.3125,-0.46875 -1.61718,0 -2.78906,1.21875 -3.51562,3.65625 -0.16406,0.65625 -0.23438,1.28907 -0.23438,1.89844 0,0.77344 0.11719,1.47656 0.375,2.13281 0.70313,1.82813 1.78125,2.74219 3.23438,2.74219 z m 0.39844,-6.11719 c -0.0234,0 -0.0469,-0.0703 -0.0469,-0.21093 0,-0.30469 0.14063,-0.9375 0.44531,-1.875 0.11719,0 0.1875,0.28125 0.1875,0.84375 0,0.51562 -0.16406,0.91406 -0.51562,1.21875 z"
           id="path1121" />
      </g>
      <g
         aria-label="code"
         transform="matrix(1.1495989,0,0,1.1916436,-220.67251,-661.60125)"
         id="text139-4-9"
         style="font-size:48px;line-height:1.25;font-family:'Sarah Jason';-inkscape-font-specification:'Sarah Jason, Normal';white-space:pre;shape-inside:url(#rect145-9-1);display:inline;fill:#e702c1;fill-opacity:0.4;filter:url(#filter10461)">
        <path
           d="m 306.92578,640.34994 c 0.79688,-0.0234 1.52344,-0.375 2.15625,-1.00781 0.63281,-0.63281 1.19531,-1.40625 1.64063,-2.29687 0.44531,-0.89063 0.77343,-1.71094 1.03125,-2.4375 0.23437,-0.72657 0.35156,-1.19532 0.35156,-1.40625 -0.0234,-0.39844 -0.0703,-0.58594 -0.14063,-0.58594 -0.11718,0 -0.375,0.51562 -0.77343,1.52344 -0.42188,1.03125 -0.96094,2.10937 -1.61719,3.25781 -0.65625,1.125 -1.40625,1.78125 -2.25,1.94531 -1.05469,-0.0234 -1.57031,-0.84375 -1.57031,-2.4375 0,-0.58594 0.14062,-1.17187 0.39843,-1.80469 1.05469,-2.15625 1.66407,-2.01562 1.92188,-2.01562 0.21094,0 0.375,0.0703 0.5625,0.0703 0.32812,0 0.63281,-0.21094 0.89062,-0.65625 0.16407,-0.39844 0.25782,-0.75 0.25782,-1.07812 0,-0.51563 -0.1875,-0.96094 -0.58594,-1.35938 -0.58594,-0.58594 -1.28906,-0.86719 -2.13281,-0.86719 -1.21875,0 -2.15625,0.70313 -2.83594,2.10938 -0.30469,0.82031 -0.46875,1.75781 -0.46875,2.78906 0,1.6875 0.35156,3.21094 1.03125,4.54688 0.53906,1.05468 1.26562,1.64062 2.13281,1.71093 z"
           id="path1106" />
        <path
           d="m 315.24609,639.50619 c 1.125,0 2.0625,-0.82031 2.8125,-2.4375 0.35157,-0.91406 0.5625,-1.59375 0.60938,-2.08593 l -0.0234,-0.14063 c 0.0703,0.0703 0.25781,0.0937 0.58594,0.0937 0.1875,0 0.46875,-0.0234 0.84375,-0.0937 1.99219,-0.44531 1.89844,-0.84375 1.89844,-0.91406 0,-0.16406 -0.0937,-0.23438 -0.28125,-0.23438 -0.0703,0 -0.14063,0.0234 -0.25782,0.0703 -1.00781,0.375 -1.75781,0.5625 -2.25,0.5625 -0.32812,0 -0.51562,-0.14063 -0.53906,-0.39844 -0.0234,-1.85156 -0.58594,-2.67188 -1.17187,-3 -0.58594,-0.32813 -1.17188,-0.30469 -1.28907,-0.51563 -0.375,-0.86718 -1.03125,-1.3125 -1.96875,-1.33593 -0.89062,0 -1.66406,0.44531 -2.34375,1.33593 -0.49218,0.63282 -0.72656,1.52344 -0.72656,2.625 0,0.49219 0.0469,1.05469 0.14063,1.64063 0.32812,1.64062 0.86718,2.85937 1.64062,3.65625 0.77344,0.77344 1.54688,1.17187 2.32031,1.17187 z m 2.53125,-5.74218 c -0.11718,0 -0.42187,-0.30469 -0.89062,-0.91407 -0.32813,-0.42187 -0.49219,-0.77343 -0.49219,-1.07812 0,-0.28125 0.11719,-0.42188 0.35156,-0.42188 0.23438,0 0.49219,0.25782 0.77344,0.79688 0.25781,0.53906 0.39844,1.00781 0.39844,1.38281 0,0.16406 -0.0469,0.23438 -0.14063,0.23438 z m -1.99218,3.89062 c -0.35157,0 -0.53907,-0.23437 -0.53907,-0.72656 0,-0.28125 0.0469,-0.65625 0.16407,-1.10156 0.49218,-1.89844 0.58593,-2.69532 0.67968,-2.69532 0.0469,0 0.11719,0.0703 0.21094,0.1875 0.11719,0.21094 0.35156,0.46875 0.70313,0.79688 0.39843,0.375 0.60937,0.77344 0.60937,1.21875 0,0.14062 -0.0234,0.28125 -0.0703,0.42187 -0.16406,0.60938 -0.42188,1.07813 -0.79688,1.40625 -0.39843,0.32813 -0.70312,0.49219 -0.96093,0.49219 z"
           id="path1108" />
        <path
           d="m 333.48047,644.82651 c 0.60937,0 0.91406,-0.39844 0.91406,-1.19532 -0.1875,-0.39843 -0.35156,-0.79687 -0.46875,-1.19531 -0.42187,-1.28906 -0.63281,-3.39844 -0.63281,-6.28125 0,-3.35156 0.28125,-7.47656 0.84375,-12.32812 0.0703,-0.98438 0.11719,-1.875 0.11719,-2.64844 0,-1.73438 -0.1875,-3.02344 -0.53907,-3.84375 -0.21093,-0.49219 -0.49218,-0.75 -0.79687,-0.75 -1.45313,0 -3.1875,4.03125 -5.20313,12.07031 -0.375,1.47656 -0.46875,2.17969 -0.53906,2.17969 -0.0234,0 -0.0469,-0.0469 -0.0703,-0.16406 -0.11719,-0.58594 -0.42188,-1.05469 -0.9375,-1.42969 -0.32813,-0.21094 -0.77344,-0.35156 -1.35938,-0.375 -1.38281,0.0703 -2.36718,0.67969 -2.97656,1.875 -0.60937,1.19531 -0.91406,2.41406 -0.91406,3.63281 0,2.20313 0.77344,3.84375 2.32031,4.92188 0.32813,0.16406 0.63281,0.25781 0.91406,0.25781 1.125,0 2.10938,-1.54688 2.97657,-4.61719 0.44531,-1.57031 0.79687,-3.11719 1.10156,-4.64062 0.1875,-0.89063 0.35156,-1.66407 0.51562,-2.29688 -0.1875,1.75781 -0.28125,3.375 -0.28125,4.82813 0,1.80468 0.14063,3.39843 0.42188,4.75781 0.51562,2.46094 1.21875,4.26562 2.08594,5.4375 0.86718,1.14844 1.5,1.75781 1.875,1.78125 0.375,0.0234 0.58593,0.0234 0.63281,0.0234 z m -8.88281,-6.75 c -0.30469,0 -0.46875,-0.375 -0.46875,-1.10157 0,-1.21875 0.46875,-2.60156 1.38281,-4.14843 l 0.28125,0.0234 c 0.39844,0 0.72656,-0.16406 0.98437,-0.49218 0.0234,-0.0469 0.0469,-0.0703 0.0703,-0.0703 l -0.25782,1.125 c -0.67968,3.11719 -1.33593,4.66407 -1.99218,4.66407 z"
           id="path1110" />
        <path
           d="m 339.01172,639.24838 c 0.58594,0 1.17187,-0.1875 1.80469,-0.58594 1.33593,-0.96093 2.32031,-1.89843 2.95312,-2.8125 0.63281,-0.9375 0.96094,-1.54687 1.03125,-1.85156 0.0469,-0.30469 0.0703,-0.49219 0.0703,-0.5625 0,-0.11719 -0.0234,-0.16406 -0.0703,-0.16406 -0.0703,0 -0.16406,0.0703 -0.30469,0.23437 0,0.0703 -0.39843,0.65625 -1.19531,1.78125 -1.10156,1.57032 -2.15625,2.34375 -2.74219,2.34375 -0.9375,-0.0234 -1.40625,-0.63281 -1.40625,-1.82812 0,-0.375 0.0469,-0.82031 0.14063,-1.3125 0.60937,-0.21094 1.07812,-0.63281 1.38281,-1.28906 0.30469,-0.63282 0.46875,-1.28907 0.46875,-1.96875 0,-0.86719 -0.23437,-1.5 -0.67969,-1.94532 -0.39843,-0.30468 -0.82031,-0.46875 -1.3125,-0.46875 -1.61718,0 -2.78906,1.21875 -3.51562,3.65625 -0.16406,0.65625 -0.23438,1.28907 -0.23438,1.89844 0,0.77344 0.11719,1.47656 0.375,2.13281 0.70313,1.82813 1.78125,2.74219 3.23438,2.74219 z m 0.39844,-6.11719 c -0.0234,0 -0.0469,-0.0703 -0.0469,-0.21093 0,-0.30469 0.14063,-0.9375 0.44531,-1.875 0.11719,0 0.1875,0.28125 0.1875,0.84375 0,0.51562 -0.16406,0.91406 -0.51562,1.21875 z"
           id="path1112" />
      </g>
      <g
         aria-label="code"
         transform="matrix(1.0583333,0,0,1.0583333,-191.34335,-577.17614)"
         id="text139"
         style="font-size:48px;line-height:1.25;font-family:'Sarah Jason';-inkscape-font-specification:'Sarah Jason, Normal';white-space:pre;shape-inside:url(#rect145)">
        <path
           d="m 306.92578,640.34994 c 0.79688,-0.0234 1.52344,-0.375 2.15625,-1.00781 0.63281,-0.63281 1.19531,-1.40625 1.64063,-2.29687 0.44531,-0.89063 0.77343,-1.71094 1.03125,-2.4375 0.23437,-0.72657 0.35156,-1.19532 0.35156,-1.40625 -0.0234,-0.39844 -0.0703,-0.58594 -0.14063,-0.58594 -0.11718,0 -0.375,0.51562 -0.77343,1.52344 -0.42188,1.03125 -0.96094,2.10937 -1.61719,3.25781 -0.65625,1.125 -1.40625,1.78125 -2.25,1.94531 -1.05469,-0.0234 -1.57031,-0.84375 -1.57031,-2.4375 0,-0.58594 0.14062,-1.17187 0.39843,-1.80469 1.05469,-2.15625 1.66407,-2.01562 1.92188,-2.01562 0.21094,0 0.375,0.0703 0.5625,0.0703 0.32812,0 0.63281,-0.21094 0.89062,-0.65625 0.16407,-0.39844 0.25782,-0.75 0.25782,-1.07812 0,-0.51563 -0.1875,-0.96094 -0.58594,-1.35938 -0.58594,-0.58594 -1.28906,-0.86719 -2.13281,-0.86719 -1.21875,0 -2.15625,0.70313 -2.83594,2.10938 -0.30469,0.82031 -0.46875,1.75781 -0.46875,2.78906 0,1.6875 0.35156,3.21094 1.03125,4.54688 0.53906,1.05468 1.26562,1.64062 2.13281,1.71093 z"
           style="fill:#ffffff"
           id="path1079" />
        <path
           d="m 315.24609,639.50619 c 1.125,0 2.0625,-0.82031 2.8125,-2.4375 0.35157,-0.91406 0.5625,-1.59375 0.60938,-2.08593 l -0.0234,-0.14063 c 0.0703,0.0703 0.25781,0.0937 0.58594,0.0937 0.1875,0 0.46875,-0.0234 0.84375,-0.0937 1.99219,-0.44531 1.89844,-0.84375 1.89844,-0.91406 0,-0.16406 -0.0937,-0.23438 -0.28125,-0.23438 -0.0703,0 -0.14063,0.0234 -0.25782,0.0703 -1.00781,0.375 -1.75781,0.5625 -2.25,0.5625 -0.32812,0 -0.51562,-0.14063 -0.53906,-0.39844 -0.0234,-1.85156 -0.58594,-2.67188 -1.17187,-3 -0.58594,-0.32813 -1.17188,-0.30469 -1.28907,-0.51563 -0.375,-0.86718 -1.03125,-1.3125 -1.96875,-1.33593 -0.89062,0 -1.66406,0.44531 -2.34375,1.33593 -0.49218,0.63282 -0.72656,1.52344 -0.72656,2.625 0,0.49219 0.0469,1.05469 0.14063,1.64063 0.32812,1.64062 0.86718,2.85937 1.64062,3.65625 0.77344,0.77344 1.54688,1.17187 2.32031,1.17187 z m 2.53125,-5.74218 c -0.11718,0 -0.42187,-0.30469 -0.89062,-0.91407 -0.32813,-0.42187 -0.49219,-0.77343 -0.49219,-1.07812 0,-0.28125 0.11719,-0.42188 0.35156,-0.42188 0.23438,0 0.49219,0.25782 0.77344,0.79688 0.25781,0.53906 0.39844,1.00781 0.39844,1.38281 0,0.16406 -0.0469,0.23438 -0.14063,0.23438 z m -1.99218,3.89062 c -0.35157,0 -0.53907,-0.23437 -0.53907,-0.72656 0,-0.28125 0.0469,-0.65625 0.16407,-1.10156 0.49218,-1.89844 0.58593,-2.69532 0.67968,-2.69532 0.0469,0 0.11719,0.0703 0.21094,0.1875 0.11719,0.21094 0.35156,0.46875 0.70313,0.79688 0.39843,0.375 0.60937,0.77344 0.60937,1.21875 0,0.14062 -0.0234,0.28125 -0.0703,0.42187 -0.16406,0.60938 -0.42188,1.07813 -0.79688,1.40625 -0.39843,0.32813 -0.70312,0.49219 -0.96093,0.49219 z"
           style="fill:#ffffff"
           id="path1081" />
        <path
           d="m 333.48047,644.82651 c 0.60937,0 0.91406,-0.39844 0.91406,-1.19532 -0.1875,-0.39843 -0.35156,-0.79687 -0.46875,-1.19531 -0.42187,-1.28906 -0.63281,-3.39844 -0.63281,-6.28125 0,-3.35156 0.28125,-7.47656 0.84375,-12.32812 0.0703,-0.98438 0.11719,-1.875 0.11719,-2.64844 0,-1.73438 -0.1875,-3.02344 -0.53907,-3.84375 -0.21093,-0.49219 -0.49218,-0.75 -0.79687,-0.75 -1.45313,0 -3.1875,4.03125 -5.20313,12.07031 -0.375,1.47656 -0.46875,2.17969 -0.53906,2.17969 -0.0234,0 -0.0469,-0.0469 -0.0703,-0.16406 -0.11719,-0.58594 -0.42188,-1.05469 -0.9375,-1.42969 -0.32813,-0.21094 -0.77344,-0.35156 -1.35938,-0.375 -1.38281,0.0703 -2.36718,0.67969 -2.97656,1.875 -0.60937,1.19531 -0.91406,2.41406 -0.91406,3.63281 0,2.20313 0.77344,3.84375 2.32031,4.92188 0.32813,0.16406 0.63281,0.25781 0.91406,0.25781 1.125,0 2.10938,-1.54688 2.97657,-4.61719 0.44531,-1.57031 0.79687,-3.11719 1.10156,-4.64062 0.1875,-0.89063 0.35156,-1.66407 0.51562,-2.29688 -0.1875,1.75781 -0.28125,3.375 -0.28125,4.82813 0,1.80468 0.14063,3.39843 0.42188,4.75781 0.51562,2.46094 1.21875,4.26562 2.08594,5.4375 0.86718,1.14844 1.5,1.75781 1.875,1.78125 0.375,0.0234 0.58593,0.0234 0.63281,0.0234 z m -8.88281,-6.75 c -0.30469,0 -0.46875,-0.375 -0.46875,-1.10157 0,-1.21875 0.46875,-2.60156 1.38281,-4.14843 l 0.28125,0.0234 c 0.39844,0 0.72656,-0.16406 0.98437,-0.49218 0.0234,-0.0469 0.0469,-0.0703 0.0703,-0.0703 l -0.25782,1.125 c -0.67968,3.11719 -1.33593,4.66407 -1.99218,4.66407 z"
           style="fill:#ffffff"
           id="path1083" />
        <path
           d="m 339.01172,639.24838 c 0.58594,0 1.17187,-0.1875 1.80469,-0.58594 1.33593,-0.96093 2.32031,-1.89843 2.95312,-2.8125 0.63281,-0.9375 0.96094,-1.54687 1.03125,-1.85156 0.0469,-0.30469 0.0703,-0.49219 0.0703,-0.5625 0,-0.11719 -0.0234,-0.16406 -0.0703,-0.16406 -0.0703,0 -0.16406,0.0703 -0.30469,0.23437 0,0.0703 -0.39843,0.65625 -1.19531,1.78125 -1.10156,1.57032 -2.15625,2.34375 -2.74219,2.34375 -0.9375,-0.0234 -1.40625,-0.63281 -1.40625,-1.82812 0,-0.375 0.0469,-0.82031 0.14063,-1.3125 0.60937,-0.21094 1.07812,-0.63281 1.38281,-1.28906 0.30469,-0.63282 0.46875,-1.28907 0.46875,-1.96875 0,-0.86719 -0.23437,-1.5 -0.67969,-1.94532 -0.39843,-0.30468 -0.82031,-0.46875 -1.3125,-0.46875 -1.61718,0 -2.78906,1.21875 -3.51562,3.65625 -0.16406,0.65625 -0.23438,1.28907 -0.23438,1.89844 0,0.77344 0.11719,1.47656 0.375,2.13281 0.70313,1.82813 1.78125,2.74219 3.23438,2.74219 z m 0.39844,-6.11719 c -0.0234,0 -0.0469,-0.0703 -0.0469,-0.21093 0,-0.30469 0.14063,-0.9375 0.44531,-1.875 0.11719,0 0.1875,0.28125 0.1875,0.84375 0,0.51562 -0.16406,0.91406 -0.51562,1.21875 z"
           style="fill:#ffffff"
           id="path1085" />
      </g>
      <g
         aria-label="unicorns"
         transform="matrix(1.0583333,0,0,1.0583333,-108.15285,-481.25831)"
         id="text133"
         style="font-size:48px;line-height:1.25;font-family:'Sarah Jason';-inkscape-font-specification:'Sarah Jason, Normal';white-space:pre;shape-inside:url(#rect143);opacity:0.907">
        <path
           d="m 123.5918,539.90072 c 0.70312,-0.0937 1.33593,-0.63281 1.92187,-1.61718 0.58594,-0.98438 0.89063,-2.27344 0.91406,-3.86719 -0.0234,-0.39844 -0.0703,-0.58594 -0.14062,-0.58594 -0.0937,0 -0.375,0.53906 -0.82031,1.61719 -0.30469,0.72656 -0.60938,1.40625 -0.9375,2.03906 -0.32813,0.63281 -0.63282,0.98438 -0.9375,1.00781 -0.21094,-0.0469 -0.375,-0.375 -0.51563,-0.96093 -0.30469,-1.21875 -0.53906,-3 -0.65625,-4.40625 -0.0703,-0.77344 -0.14062,-1.26563 -0.1875,-1.42969 -0.16406,-0.375 -0.375,-0.5625 -0.58594,-0.5625 -0.60937,0 -1.57031,1.35937 -2.88281,4.05469 -0.44531,0.89062 -0.70312,1.33593 -0.77344,1.33593 v -0.42187 c 0.1875,-2.22656 0.28125,-3.5625 0.28125,-4.05469 0,-0.82031 -0.23437,-1.38281 -0.72656,-1.6875 -0.30469,-0.21094 -0.63281,-0.30469 -0.98437,-0.30469 -0.35157,0 -0.70313,0.0937 -1.10157,0.30469 -1.10156,0.53906 -1.64062,1.57031 -1.64062,3.09375 0,1.00781 0.35156,2.22656 1.03125,3.67969 0.58594,1.14844 1.21875,1.73437 1.85156,1.75781 0.58594,0 1.125,-0.32812 1.66406,-0.96094 0.51563,-0.63281 1.00782,-1.40625 1.45313,-2.34375 0.44531,-0.91406 0.84375,-1.75781 1.17187,-2.55468 0.30469,-0.77344 0.51563,-1.21875 0.58594,-1.28907 0.0703,-0.0703 0.0937,-0.11718 0.11719,-0.11718 0.0469,0 0.0703,0.0937 0.0703,0.25781 0,0.21094 -0.0234,0.5625 -0.0937,1.05469 -0.11719,1.00781 -0.16406,1.89843 -0.16406,2.67187 0,1.19531 0.14062,2.13281 0.39844,2.78906 0.39843,1.00782 0.89062,1.5 1.52343,1.5 z"
           style="fill:#ffffff"
           id="path955" />
        <path
           d="m 136.01367,541.56479 c 0.72656,0 1.38281,-0.39844 1.99219,-1.21875 0.67969,-0.89063 1.24219,-1.92188 1.64062,-3.07032 0.39844,-1.14843 0.60938,-2.0625 0.60938,-2.74218 -0.0234,-0.16407 -0.11719,-0.25782 -0.28125,-0.25782 -0.16406,0 -0.23438,0.0937 -0.23438,0.25782 0,1.03125 -0.60937,2.625 -1.42968,3.9375 -0.67969,1.125 -1.21875,1.6875 -1.61719,1.6875 -0.14063,0 -0.23438,-0.0703 -0.30469,-0.21094 -0.0703,-0.16406 -0.11719,-0.65625 -0.14062,-1.47656 -0.23438,-5.88282 -0.9375,-8.8125 -2.10938,-8.8125 -0.21094,0 -0.46875,0.0937 -0.75,0.30468 -0.77344,0.58594 -1.78125,2.4375 -3.04687,5.55469 -0.60938,1.54688 -0.96094,2.32031 -1.07813,2.32031 -0.0234,0 -0.0469,-0.0469 -0.0469,-0.11718 0,-0.21094 0.0234,-0.60938 0.0937,-1.14844 0.0937,-1.07813 0.14062,-1.99219 0.14062,-2.74219 0,-0.72656 -0.0703,-1.42969 -0.21094,-2.0625 -0.16406,-0.72656 -0.53906,-1.24219 -1.10156,-1.5 -0.16406,-0.0703 -0.35156,-0.0937 -0.53906,-0.0937 -0.375,0 -0.77344,0.14063 -1.19531,0.39844 -0.77344,0.49219 -1.17188,1.42969 -1.17188,2.8125 0,1.54687 0.28125,2.88281 0.84375,4.00781 0.72656,1.45313 1.54688,2.17969 2.48438,2.17969 0.72656,0 1.33593,-0.63281 1.82812,-1.92188 0.63281,-1.94531 1.38281,-3.63281 2.22656,-5.10937 0.35157,-0.58594 0.58594,-0.89063 0.72657,-0.89063 0.0937,0 0.14062,0.0937 0.14062,0.30469 0,0.30469 -0.0937,0.86719 -0.25781,1.66406 -0.14063,0.63282 -0.21094,1.35938 -0.21094,2.13282 0,1.54687 0.28125,2.90625 0.82031,4.07812 0.42188,0.9375 1.05469,1.5 1.92188,1.71094 z"
           style="fill:#ffffff"
           id="path957" />
        <path
           d="m 141.47461,529.4476 c 0.63281,0 1.03125,-0.30469 1.19531,-0.91406 0.0234,-0.16407 0.0469,-0.32813 0.0469,-0.46875 0,-0.84375 -0.60938,-1.19532 -1.24219,-1.19532 -0.11719,0 -0.23438,0.0234 -0.35156,0.0469 -0.70313,0.14062 -1.05469,0.51562 -1.05469,1.10156 0,0.30469 0.14062,0.63281 0.39844,1.03125 0.30468,0.25781 0.63281,0.39844 1.00781,0.39844 z m 1.05469,12.25781 c 0.53906,0 1.10156,-0.30469 1.73437,-0.89062 0.9375,-0.91407 1.89844,-2.90625 2.90625,-6 0.0703,-0.23438 0.11719,-0.42188 0.11719,-0.53907 0,-0.21093 -0.0469,-0.30468 -0.16406,-0.30468 -0.21094,0 -0.65625,0.82031 -1.33594,2.48437 -0.91406,2.34375 -1.59375,3.51563 -2.03906,3.51563 -0.35157,0 -0.5625,-0.82032 -0.67969,-2.46094 -0.16406,-2.74219 -0.23438,-4.3125 -0.23438,-4.71094 v -0.14062 c 0.0234,0 0.0234,0.0703 0.0469,0.1875 -0.0937,-1.28907 -0.65625,-1.94532 -1.6875,-1.94532 -0.44531,0 -0.86719,0.23438 -1.28906,0.72657 -0.53907,0.63281 -0.82032,1.875 -0.82032,3.72656 0,1.24219 0.28125,2.50781 0.82032,3.75 0.72656,1.73437 1.59375,2.60156 2.625,2.60156 z"
           style="fill:#ffffff"
           id="path959" />
        <path
           d="m 149.30273,541.14291 c 0.79688,-0.0234 1.52344,-0.375 2.15625,-1.00781 0.63282,-0.63281 1.19532,-1.40625 1.64063,-2.29688 0.44531,-0.89062 0.77344,-1.71093 1.03125,-2.4375 0.23437,-0.72656 0.35156,-1.19531 0.35156,-1.40625 -0.0234,-0.39843 -0.0703,-0.58593 -0.14062,-0.58593 -0.11719,0 -0.375,0.51562 -0.77344,1.52343 -0.42188,1.03125 -0.96094,2.10938 -1.61719,3.25782 -0.65625,1.125 -1.40625,1.78125 -2.25,1.94531 -1.05469,-0.0234 -1.57031,-0.84375 -1.57031,-2.4375 0,-0.58594 0.14062,-1.17188 0.39844,-1.80469 1.05468,-2.15625 1.66406,-2.01562 1.92187,-2.01562 0.21094,0 0.375,0.0703 0.5625,0.0703 0.32813,0 0.63281,-0.21094 0.89063,-0.65625 0.16406,-0.39844 0.25781,-0.75 0.25781,-1.07813 0,-0.51562 -0.1875,-0.96093 -0.58594,-1.35937 -0.58594,-0.58594 -1.28906,-0.86719 -2.13281,-0.86719 -1.21875,0 -2.15625,0.70313 -2.83594,2.10938 -0.30469,0.82031 -0.46875,1.75781 -0.46875,2.78906 0,1.6875 0.35156,3.21094 1.03125,4.54687 0.53906,1.05469 1.26563,1.64063 2.13281,1.71094 z"
           style="fill:#ffffff"
           id="path961" />
        <path
           d="m 157.62305,540.29916 c 1.125,0 2.0625,-0.82031 2.8125,-2.4375 0.35156,-0.91406 0.5625,-1.59375 0.60937,-2.08594 l -0.0234,-0.14062 c 0.0703,0.0703 0.25782,0.0937 0.58594,0.0937 0.1875,0 0.46875,-0.0234 0.84375,-0.0937 1.99219,-0.44531 1.89844,-0.84375 1.89844,-0.91406 0,-0.16407 -0.0937,-0.23438 -0.28125,-0.23438 -0.0703,0 -0.14063,0.0234 -0.25781,0.0703 -1.00782,0.375 -1.75782,0.5625 -2.25,0.5625 -0.32813,0 -0.51563,-0.14062 -0.53907,-0.39843 -0.0234,-1.85157 -0.58593,-2.67188 -1.17187,-3 -0.58594,-0.32813 -1.17188,-0.30469 -1.28906,-0.51563 -0.375,-0.86719 -1.03125,-1.3125 -1.96875,-1.33594 -0.89063,0 -1.66407,0.44532 -2.34375,1.33594 -0.49219,0.63281 -0.72657,1.52344 -0.72657,2.625 0,0.49219 0.0469,1.05469 0.14063,1.64063 0.32812,1.64062 0.86719,2.85937 1.64062,3.65625 0.77344,0.77343 1.54688,1.17187 2.32032,1.17187 z m 2.53125,-5.74219 c -0.11719,0 -0.42188,-0.30468 -0.89063,-0.91406 -0.32812,-0.42187 -0.49219,-0.77344 -0.49219,-1.07812 0,-0.28125 0.11719,-0.42188 0.35157,-0.42188 0.23437,0 0.49218,0.25781 0.77343,0.79688 0.25782,0.53906 0.39844,1.00781 0.39844,1.38281 0,0.16406 -0.0469,0.23437 -0.14062,0.23437 z m -1.99219,3.89063 c -0.35156,0 -0.53906,-0.23438 -0.53906,-0.72656 0,-0.28125 0.0469,-0.65625 0.16406,-1.10157 0.49219,-1.89843 0.58594,-2.69531 0.67969,-2.69531 0.0469,0 0.11718,0.0703 0.21093,0.1875 0.11719,0.21094 0.35157,0.46875 0.70313,0.79688 0.39844,0.375 0.60937,0.77343 0.60937,1.21875 0,0.14062 -0.0234,0.28125 -0.0703,0.42187 -0.16406,0.60938 -0.42187,1.07813 -0.79687,1.40625 -0.39844,0.32813 -0.70313,0.49219 -0.96094,0.49219 z"
           style="fill:#ffffff"
           id="path963" />
        <path
           d="m 167.04492,539.31479 c 1.00781,-0.11719 1.85156,-1.47657 2.48438,-4.10157 0.25781,-1.07812 0.44531,-2.08593 0.60937,-3 0.28125,-1.38281 0.46875,-2.08593 0.5625,-2.08593 0.0234,0 0.0469,0.0234 0.0703,0.0469 0.42188,0.58594 0.77344,0.89063 1.05469,0.91406 0.25781,0.0234 0.42188,0.0234 0.49219,0.0234 0.39844,0 0.72656,-0.11719 0.98437,-0.375 0.16407,-0.16406 0.25782,-0.35156 0.25782,-0.5625 0,-0.14062 -0.0469,-0.30469 -0.11719,-0.46875 -0.1875,-0.35156 -0.30469,-0.35156 -0.32813,-0.35156 -0.0937,0 -0.1875,0.0937 -0.30468,0.25781 -0.25782,0.30469 -0.53907,0.46875 -0.82032,0.46875 -0.21093,0 -0.44531,-0.0703 -0.72656,-0.23437 -0.1875,-0.11719 -0.35156,-0.16407 -0.51562,-0.16407 -0.49219,0 -0.86719,0.91407 -1.17188,2.74219 -0.1875,1.38281 -0.58594,2.78906 -1.19531,4.24219 -0.32813,0.67969 -0.53906,1.00781 -0.65625,1.00781 -0.0234,0 -0.0469,-0.0937 -0.0469,-0.28125 0,-0.30469 0.0469,-0.84375 0.16407,-1.61719 0.25781,-1.71093 0.375,-3.02343 0.375,-3.9375 0,-0.53906 -0.0469,-1.05468 -0.11719,-1.5 -0.11719,-0.77343 -0.32813,-1.21875 -0.63281,-1.33593 -0.30469,-0.0937 -0.51563,-0.14063 -0.63282,-0.14063 -0.49218,0 -1.19531,0.32813 -2.08593,1.00781 -1.03125,0.89063 -1.54688,2.08594 -1.54688,3.58594 0,1.47656 0.35156,2.83594 1.07813,4.03125 0.75,1.19531 1.66406,1.80469 2.76562,1.82813 z"
           style="fill:#ffffff"
           id="path965" />
        <path
           d="m 186.07617,541.56479 c 0.72656,0 1.38281,-0.39844 1.99219,-1.21875 0.67969,-0.89063 1.24219,-1.92188 1.64062,-3.07032 0.39844,-1.14843 0.60938,-2.0625 0.60938,-2.74218 -0.0234,-0.16407 -0.11719,-0.25782 -0.28125,-0.25782 -0.16406,0 -0.23438,0.0937 -0.23438,0.25782 0,1.03125 -0.60937,2.625 -1.42968,3.9375 -0.67969,1.125 -1.21875,1.6875 -1.61719,1.6875 -0.14063,0 -0.23438,-0.0703 -0.30469,-0.21094 -0.0703,-0.16406 -0.11719,-0.65625 -0.14062,-1.47656 -0.23438,-5.88282 -0.9375,-8.8125 -2.10938,-8.8125 -0.21094,0 -0.46875,0.0937 -0.75,0.30468 -0.77344,0.58594 -1.78125,2.4375 -3.04687,5.55469 -0.60938,1.54688 -0.96094,2.32031 -1.07813,2.32031 -0.0234,0 -0.0469,-0.0469 -0.0469,-0.11718 0,-0.21094 0.0234,-0.60938 0.0937,-1.14844 0.0937,-1.07813 0.14062,-1.99219 0.14062,-2.74219 0,-0.72656 -0.0703,-1.42969 -0.21094,-2.0625 -0.16406,-0.72656 -0.53906,-1.24219 -1.10156,-1.5 -0.16406,-0.0703 -0.35156,-0.0937 -0.53906,-0.0937 -0.375,0 -0.77344,0.14063 -1.19531,0.39844 -0.77344,0.49219 -1.17188,1.42969 -1.17188,2.8125 0,1.54687 0.28125,2.88281 0.84375,4.00781 0.72656,1.45313 1.54688,2.17969 2.48438,2.17969 0.72656,0 1.33593,-0.63281 1.82812,-1.92188 0.63281,-1.94531 1.38281,-3.63281 2.22656,-5.10937 0.35157,-0.58594 0.58594,-0.89063 0.72657,-0.89063 0.0937,0 0.14062,0.0937 0.14062,0.30469 0,0.30469 -0.0937,0.86719 -0.25781,1.66406 -0.14063,0.63282 -0.21094,1.35938 -0.21094,2.13282 0,1.54687 0.28125,2.90625 0.82031,4.07812 0.42188,0.9375 1.05469,1.5 1.92188,1.71094 z"
           style="fill:#ffffff"
           id="path967" />
        <path
           d="m 192.7793,543.86166 c 1.38281,0 2.08593,-0.86719 2.08593,-2.60156 0,-0.96094 -0.25781,-2.10938 -0.77343,-3.44531 0.58593,-0.5625 1.47656,-1.21875 2.64843,-1.99219 1.17188,-0.77344 2.17969,-1.24219 3.02344,-1.42969 0.14063,-0.0234 0.21094,-0.0937 0.21094,-0.25781 0,-0.23438 -0.11719,-0.35156 -0.375,-0.35156 -1.07813,0.25781 -2.48438,1.05468 -4.24219,2.34375 -0.86719,0.63281 -1.35937,0.9375 -1.5,0.9375 -0.0703,0 -0.0937,-0.0234 -0.11719,-0.0703 -0.49218,-1.14843 -0.72656,-2.10937 -0.72656,-2.85937 0,-0.91406 0.16406,-1.45313 0.46875,-1.64063 0.0703,0 0.14063,-0.0469 0.21094,-0.11718 0.35156,-0.23438 0.51562,-0.63282 0.51562,-1.21875 0,-0.53907 -0.1875,-0.96094 -0.5625,-1.28907 -0.30468,-0.25781 -0.75,-0.375 -1.35937,-0.375 -0.96094,0 -1.71094,0.42188 -2.27344,1.26563 -0.5625,0.84375 -0.84375,1.71094 -0.84375,2.60156 0,0.39844 0.0469,0.82031 0.14063,1.26563 0.28125,1.45312 1.28906,2.88281 3.04687,4.3125 -0.89062,1.26562 -1.33594,2.29687 -1.33594,3.11718 0,0.21094 0.0234,0.39844 0.0937,0.5625 0.28125,0.82032 0.84375,1.24219 1.66407,1.24219 z m -0.21094,-1.00781 c -0.44531,0 -0.67969,-0.32813 -0.67969,-0.96094 0,-0.25781 0,-0.46875 0.16406,-0.9375 0.25782,-0.77344 0.58594,-1.3125 0.70313,-1.3125 0.0234,0 0.0469,0.0234 0.0703,0.0469 0.42188,0.70312 0.63281,1.3125 0.63281,1.80468 0,0.91407 -0.30468,1.35938 -0.89062,1.35938 z"
           style="fill:#ffffff"
           id="path969" />
      </g>
    </g>
  </g>
</svg>
