<?xml version="1.0" encoding="UTF-8" standalone="no"?>
<!-- Created with Inkscape (http://www.inkscape.org/) -->

<svg
   width="210mm"
   height="297mm"
   viewBox="0 0 210 297"
   version="1.1"
   id="svg5"
   sodipodi:docname="Logo_2.0_Unicorn_Only_Path.svg"
   inkscape:version="1.1.1 (c3084ef, 2021-09-22)"
   xmlns:inkscape="http://www.inkscape.org/namespaces/inkscape"
   xmlns:sodipodi="http://sodipodi.sourceforge.net/DTD/sodipodi-0.dtd"
   xmlns="http://www.w3.org/2000/svg"
   xmlns:svg="http://www.w3.org/2000/svg">
  <sodipodi:namedview
     id="namedview7"
     pagecolor="#ffffff"
     bordercolor="#666666"
     borderopacity="1.0"
     inkscape:pageshadow="2"
     inkscape:pageopacity="0.0"
     inkscape:pagecheckerboard="0"
     inkscape:document-units="mm"
     showgrid="false"
     inkscape:zoom="0.83675314"
     inkscape:cx="365.10171"
     inkscape:cy="470.27012"
     inkscape:window-width="1440"
     inkscape:window-height="855"
     inkscape:window-x="0"
     inkscape:window-y="23"
     inkscape:window-maximized="0"
     inkscape:current-layer="layer2" />
  <defs
     id="defs2">
    <rect
       x="304.95785"
       y="602.29175"
       width="192.12344"
       height="65.565937"
       id="rect4871" />
    <rect
       x="114.89684"
       y="503.08404"
       width="246.20752"
       height="95.200242"
       id="rect1265" />
    <inkscape:path-effect
       effect="bspline"
       id="path-effect19377"
       is_visible="true"
       lpeversion="1"
       weight="33.333333"
       steps="2"
       helper_size="0"
       apply_no_weight="true"
       apply_with_weight="true"
       only_selected="false" />
    <inkscape:path-effect
       effect="bspline"
       id="path-effect19192"
       is_visible="true"
       lpeversion="1"
       weight="33.333333"
       steps="2"
       helper_size="0"
       apply_no_weight="true"
       apply_with_weight="true"
       only_selected="false" />
    <inkscape:path-effect
       effect="bspline"
       id="path-effect19179"
       is_visible="true"
       lpeversion="1"
       weight="33.333333"
       steps="2"
       helper_size="0"
       apply_no_weight="true"
       apply_with_weight="true"
       only_selected="false" />
    <inkscape:path-effect
       effect="bspline"
       id="path-effect19151"
       is_visible="true"
       lpeversion="1"
       weight="33.333333"
       steps="2"
       helper_size="0"
       apply_no_weight="true"
       apply_with_weight="true"
       only_selected="false" />
    <inkscape:path-effect
       effect="bspline"
       id="path-effect18982"
       is_visible="true"
       lpeversion="1"
       weight="33.333333"
       steps="2"
       helper_size="0"
       apply_no_weight="true"
       apply_with_weight="true"
       only_selected="false" />
    <inkscape:path-effect
       effect="bspline"
       id="path-effect4753"
       is_visible="true"
       lpeversion="1"
       weight="33.333333"
       steps="2"
       helper_size="0"
       apply_no_weight="true"
       apply_with_weight="true"
       only_selected="false" />
    <inkscape:path-effect
       effect="bspline"
       id="path-effect4490"
       is_visible="true"
       lpeversion="1"
       weight="33.333333"
       steps="2"
       helper_size="0"
       apply_no_weight="true"
       apply_with_weight="true"
       only_selected="false" />
    <filter
       inkscape:collect="always"
       style="color-interpolation-filters:sRGB"
       id="filter19900"
       x="-0.10130375"
       y="-0.10535995"
       width="1.2026075"
       height="1.2107199">
      <feGaussianBlur
         inkscape:collect="always"
         stdDeviation="4.4757627"
         id="feGaussianBlur19902" />
    </filter>
    <filter
       inkscape:collect="always"
       style="color-interpolation-filters:sRGB"
       id="filter19946"
       x="-0.045573817"
       y="-0.047644318"
       width="1.0911476"
       height="1.0952886">
      <feGaussianBlur
         inkscape:collect="always"
         stdDeviation="1.989221"
         id="feGaussianBlur19948" />
    </filter>
    <filter
       inkscape:collect="always"
       style="color-interpolation-filters:sRGB"
       id="filter19950"
       x="-0.015655733"
       y="-0.027869161"
       width="1.0420123"
       height="1.0518386">
      <feGaussianBlur
         inkscape:collect="always"
         stdDeviation="0.49730787"
         id="feGaussianBlur19952" />
    </filter>
    <rect
       x="114.89684"
       y="503.08404"
       width="90.655931"
       height="62.104159"
       id="rect143" />
    <rect
       x="304.95785"
       y="602.29175"
       width="54.925133"
       height="56.840606"
       id="rect145" />
    <rect
       x="304.95786"
       y="602.29175"
       width="54.925133"
       height="56.840607"
       id="rect145-9" />
    <rect
       x="114.89684"
       y="503.08405"
       width="90.65593"
       height="62.10416"
       id="rect143-3" />
    <rect
       x="304.95786"
       y="602.29175"
       width="54.925133"
       height="56.840607"
       id="rect145-9-8" />
    <rect
       x="114.89684"
       y="503.08405"
       width="90.65593"
       height="62.10416"
       id="rect143-3-1" />
    <rect
       x="304.95786"
       y="602.29175"
       width="54.925133"
       height="56.840607"
       id="rect145-9-1" />
    <rect
       x="114.89684"
       y="503.08405"
       width="90.65593"
       height="62.10416"
       id="rect143-3-15" />
  </defs>
  <g
     inkscape:groupmode="layer"
     id="layer2"
     inkscape:label="Logo"
     style="display:inline">
    <g
       id="g5993"
       transform="matrix(0.5,0,0,0.5,59.859312,33.925259)">
      <path
         style="color:#000000;fill:#e702c1;-inkscape-stroke:none;filter:url(#filter19900)"
         d="m 137.03125,12.287109 c -1.09361,-0.230284 -1.91208,0.168028 -2.33594,0.44336 -0.84801,0.550829 -0.9147,0.852657 -1.0957,1.123047 -0.181,0.270389 -0.31908,0.512796 -0.4668,0.78125 -0.29544,0.536907 -0.61268,1.166174 -1.0039,1.916015 -0.78245,1.499684 -1.88391,3.547761 -2.77735,5.13086 -0.14063,0.249187 -0.17999,0.231127 -0.30664,0.445312 -0.29491,-0.31262 -0.60943,-0.625132 -1.03515,-0.814453 -2.10791,-0.93737 -3.11995,-0.101842 -4.04493,0.464844 -0.92497,0.566686 -1.83328,1.298355 -2.32226,2.820312 -0.48889,1.521707 -0.0397,3.005608 0.65625,4.009766 0.0408,0.05893 0.10378,0.09343 0.14648,0.15039 -0.0971,0.135877 -0.10421,0.255285 -0.21289,0.394532 -0.30358,0.388953 -0.65831,0.540232 -1.02539,0.894531 -1.73161,-1.440035 -3.93084,-1.702233 -5.94336,-0.330078 -1.13228,0.771988 -1.77558,1.913897 -1.9375,3.171875 -0.0745,0.578732 0.0147,1.222288 0.20703,1.84375 -1.85436,-0.340619 -3.5245,0.380749 -4.41601,1.0625 -0.51488,0.393743 -1.0887,0.9367 -1.49024,1.767578 -0.40153,0.830878 -0.50254,1.906092 -0.32226,2.761719 0.24267,1.151721 0.99459,2.112813 1.95898,2.923828 -1.11344,0.831114 -2.28693,1.60413 -3.31054,2.035156 -1.88375,0.793211 -3.7987,0.827878 -5.85352,0.763672 -2.054808,-0.0642 -3.930217,-0.204999 -6.205079,-0.132813 -2.274916,0.07219 -4.718148,0.348242 -6.140625,0.517579 -1.422492,0.169337 -1.788203,0.231573 -3.326172,0.394531 -1.537949,0.162955 -4.152111,0.2691 -6.455078,1.142578 -0.575688,0.218349 -1.127508,0.474105 -1.71875,0.998047 -0.591241,0.523942 -1.373289,1.594064 -1.24414,2.996094 0.129148,1.402029 1.064104,2.287899 1.734375,2.710937 0.670271,0.423038 1.276331,0.606125 1.93164,0.753906 0.199915,0.04508 0.438379,0.04048 0.646485,0.07813 -0.929704,0.252572 -1.414496,0.361429 -2.447266,0.664063 -3.829694,1.122218 -8.172346,2.569015 -10.673828,3.589844 -1.250711,0.510402 -2.062711,0.865786 -2.894531,1.560546 -0.83182,0.694761 -1.43375,2.214783 -1.498047,2.761719 -0.06428,0.54676 -0.161504,1.465756 0.412109,2.591797 0.52519,1.030983 1.734807,1.784338 2.845703,2.058594 -2.331837,0.405874 -4.708617,0.887873 -6.568359,1.541015 -0.966345,0.339381 -1.783876,0.717677 -2.525391,1.238282 -0.741514,0.520604 -1.532003,1.184089 -1.902344,2.505859 -0.37034,1.32177 0.326659,3.078609 1.197266,3.822266 0.716858,0.612327 1.412866,0.773163 2.115234,0.941406 -1.156232,0.230701 -2.304912,0.396857 -3.248046,0.634766 -1.54731,0.390313 -2.647707,0.751343 -3.640625,1.320312 -0.992919,0.568969 -2.094894,1.699423 -2.314454,3.091797 -0.109698,0.6957 -0.0018,1.653514 0.44336,2.427734 0.445113,0.77422 1.106805,1.279592 1.714844,1.591797 1.216078,0.624411 2.381202,0.75429 3.996093,0.810547 3.229688,0.112516 8.200082,-0.318168 10.541016,-0.181641 0.432413,0.02522 0.360719,0.05717 0.619141,0.103516 -0.143608,0.281766 -0.240292,0.525305 -0.585938,0.869141 -0.478366,0.47586 -1.391249,1.172068 -3.201172,1.996093 -3.619842,1.64805 -10.969667,3.765638 -18.28125,5.826172 l 1.626953,5.773441 c 7.311583,-2.06053 14.585193,-4.064668 19.140625,-6.138675 2.277715,-1.037003 3.838759,-2.100424 4.947266,-3.203125 1.108507,-1.102701 1.714665,-2.283568 2.005859,-2.902344 0.291203,-0.618793 0.569515,-1.194873 0.748047,-2.003906 0.178533,-0.809033 0.1308,-1.919049 -0.199219,-2.771484 -0.330134,-0.852736 -1.215849,-1.983332 -2.357421,-2.582032 -0.634695,-0.332866 -1.518944,-0.377408 -2.28711,-0.53125 1.715711,-0.3733 3.192375,-0.708237 3.94336,-1.103515 0.4846,-0.255069 1.073521,-0.58918 1.660156,-1.273438 0.586635,-0.684257 1.056496,-1.852896 1,-2.921875 -0.0565,-1.069187 -0.722304,-2.49732 -1.84375,-3.3125 -0.271607,-0.197431 -0.595084,-0.285929 -0.890625,-0.429687 0.634494,-0.105464 1.407954,-0.233369 1.957031,-0.330078 3.764324,-0.663011 5.506822,-1.382251 6.738281,-2.101563 0.615693,-0.359635 1.252655,-0.762521 1.876953,-1.292969 0.624299,-0.530447 1.42241,-1.097934 1.751954,-2.683593 0.329776,-1.586766 -0.536749,-2.985947 -1.195313,-3.63086 -0.658564,-0.644912 -1.266784,-0.963949 -1.8125,-1.232422 -0.51808,-0.254876 -1.140493,-0.46569 -1.818359,-0.623047 0.05266,-0.01551 0.09216,-0.03348 0.144531,-0.04883 3.655633,-1.071212 6.715412,-1.786399 9.044922,-2.457031 1.164742,-0.335313 2.126847,-0.639778 3.023437,-1.066406 0.448295,-0.213314 0.887983,-0.448685 1.373047,-0.867188 0.485064,-0.418502 1.106961,-1.1253 1.289063,-2.216797 0.182123,-1.091659 -0.263894,-2.204736 -0.767578,-2.830078 -0.166597,-0.206835 -0.341396,-0.253565 -0.511719,-0.404297 0.751135,-0.06086 1.367426,-0.153414 2.072265,-0.175781 1.912664,-0.06069 3.627034,0.0641 5.826172,0.132813 2.199121,0.06871 5.201551,0.103348 8.369141,-1.230469 3.1675,-1.333775 5.8551,-3.624495 7.56641,-5.226563 0.58035,-0.543305 1.00066,-1.109476 1.44922,-1.675781 -0.54003,1.078967 -1.18473,2.224949 -1.55665,3.216797 -0.72642,1.937288 -0.98422,3.781907 -0.44726,5.458984 0.53675,1.676492 1.60142,2.634627 1.90039,2.933594 0.1495,0.149501 1.47131,1.473788 2.83398,2.828125 1.36268,1.354338 2.49011,2.49989 3.17579,3.109375 0.59836,0.531879 1.73496,1.544319 2.80078,2.640625 1.06587,1.096363 2.12898,2.344989 3.0625,3.558594 0.93355,1.213652 1.66794,2.311313 2.16015,3.347656 0.49228,1.036486 0.89876,2.488511 1.79688,4.15625 0.89803,1.667564 2.11896,3.095582 3.67773,4.654297 1.55872,1.558675 3.42152,3.248775 4.5918,4.669922 1.17036,1.421246 1.78551,2.695141 2.01953,3.695312 0.23408,1.000389 0.15749,2.015032 -0.0176,2.865235 -0.16213,0.787361 -0.34431,1.078645 -0.38867,1.148437 -0.0422,-0.01308 -0.004,-0.0455 -0.27734,0 -0.86884,0.144827 -2.54212,0.244515 -4.10157,0.02148 -1.55933,-0.223017 -3.42335,-0.823796 -5.64062,-1.529297 -2.21729,-0.705503 -4.5995,-1.432092 -6.98633,-2.216797 -2.38683,-0.784701 -4.99928,-1.717663 -7.96094,-2.205078 -2.96173,-0.487427 -5.9159,-0.475461 -8.07812,-0.369141 -2.16225,0.106327 -3.6947,0.33445 -5.01953,0.707031 -1.32491,0.372601 -2.80676,1.014462 -3.98242,2.246094 -1.175658,1.231642 -1.869275,2.762633 -2.322271,4.451172 -0.452966,1.688477 -0.67949,3.596834 -0.599609,5.552734 0.07987,1.95585 0.497651,3.94175 1.320312,5.93946 0.822618,1.9976 1.986918,3.95842 3.273438,5.5957 1.28644,1.63717 2.60082,2.7884 3.73047,3.78516 l 3.9707,-4.49805 c -1.12966,-0.99677 -2.07532,-1.83974 -2.98242,-2.99414 -0.90702,-1.15431 -1.87002,-2.78156 -2.44336,-4.17383 -0.5733,-1.39217 -0.81991,-2.59729 -0.87305,-3.89844 -0.0531,-1.3011 0.12029,-2.717064 0.39844,-3.753906 0.27814,-1.03678 0.64686,-1.632463 0.86719,-1.863282 0.22034,-0.230828 0.46541,-0.385737 1.26758,-0.611328 0.80222,-0.22561 1.79712,-0.397181 3.68945,-0.490234 1.89236,-0.09305 4.51929,-0.08184 6.80859,0.294922 2.28936,0.376772 4.59716,1.173859 7.0625,1.984375 2.46533,0.810513 4.86946,1.545996 7.03907,2.236328 2.1696,0.690334 4.29258,1.418373 6.61132,1.75 2.31864,0.331609 4.41362,0.211048 5.9375,-0.04297 1.52378,-0.254001 3.18164,-1.092088 4.00391,-2.154297 0.82227,-1.062217 1.26251,-2.291714 1.55273,-3.701172 0.29026,-1.409588 0.47931,-3.319832 -0.0176,-5.443359 -0.49692,-2.123741 -1.6093,-4.173891 -3.23047,-6.142578 -1.62124,-1.968788 -3.61455,-3.733727 -4.98047,-5.09961 -1.36589,-1.36584 -2.13877,-2.331205 -2.63672,-3.255859 -0.49786,-0.924478 -0.88967,-2.262522 -1.66016,-3.884766 -0.77056,-1.622387 -1.76377,-3.053022 -2.82421,-4.43164 -1.06049,-1.378662 -2.25712,-2.787459 -3.51758,-4.083985 -1.26052,-1.296579 -2.51688,-2.409536 -3.11524,-2.941406 0.0873,0.07761 -1.57746,-1.534961 -2.93164,-2.880859 -1.35418,-1.345899 -2.67279,-2.664983 -2.82226,-2.814453 -0.29898,-0.298972 -0.43247,-0.536268 -0.42774,-0.521485 0.005,0.01537 -0.11839,-0.268169 0.35157,-1.521484 0.46991,-1.253216 1.57088,-3.374824 2.74023,-5.613281 1.16935,-2.238462 2.33088,-4.490323 3.67578,-6.648438 1.34489,-2.158103 2.97825,-4.382731 4.42969,-6.507812 1.45145,-2.125091 2.66463,-4.0855 3.82226,-6.203125 1.15764,-2.117642 2.24665,-4.325951 2.87891,-6.0625 0.31616,-0.86835 0.51341,-1.522253 0.58203,-2.335938 0.0343,-0.406842 0.22215,-0.795435 -0.32031,-1.904297 -0.27123,-0.554431 -1.04311,-1.44159 -2.13672,-1.671875 z"
         id="path4488-3" />
      <path
         style="color:#000000;fill:#ef56d5;-inkscape-stroke:none;filter:url(#filter19946)"
         d="m 136.83008,13.265625 c -0.73537,-0.156342 -1.29191,0.110694 -1.58594,0.300781 l -0.006,0.0039 -0.9082,0.58789 v 0.421875 c -0.10833,0.172939 -0.21338,0.342811 -0.32031,0.53711 -0.28156,0.511607 -0.60052,1.141482 -0.99415,1.896484 -0.78796,1.509435 -1.89124,3.560421 -2.79296,5.158203 -0.49997,0.885898 -0.82645,1.188173 -1.21094,1.720703 -0.008,-0.02599 6.8e-4,-0.04191 -0.008,-0.06836 -0.0384,-0.119455 -0.14566,-0.255821 -0.21289,-0.386719 v -0.685547 l -1.18555,-0.525391 -0.002,-0.002 c -1.5053,-0.668571 -2.34501,-0.06562 -3.11524,0.40625 -0.77023,0.471869 -1.51668,1.10351 -1.89258,2.273438 -0.37582,1.169821 -0.0356,2.325632 0.52539,3.134765 0.14799,0.213434 0.35517,0.367029 0.53516,0.548829 -0.23716,0.393739 -0.3151,0.769958 -0.63477,1.179687 l -0.004,0.0059 c -0.51294,0.655709 -1.17481,1.029152 -1.81445,1.560547 l -0.0801,-0.08789 c -1.43029,-1.566141 -3.54132,-1.899222 -5.29492,-0.703125 l -0.87305,0.595703 v 0.326172 c -0.32542,0.469067 -0.56371,0.984881 -0.63672,1.550781 -0.12622,0.978315 0.20845,2.16049 1.10156,2.925781 h 0.002 l 0.39453,0.339844 0.36718,0.07227 c 0.35423,0.179802 0.70889,0.33628 1.07813,0.404296 -0.23599,0.373116 -0.39959,0.717428 -0.68945,1.076172 -0.63535,-0.863311 -1.42862,-1.574201 -2.5293,-1.992187 h -0.002 c -1.78517,-0.677734 -3.44145,0.07694 -4.31641,0.746094 l -0.78516,0.601562 v 0.324219 c -0.1329,0.175194 -0.3046,0.26408 -0.41015,0.482422 -0.3079,0.636912 -0.38644,1.447286 -0.24414,2.123047 0.19457,0.923858 0.82772,1.72759 1.65234,2.410156 v 0.36914 l 0.88086,0.369141 c -1.39073,1.136021 -2.98157,2.308078 -4.47656,2.9375 -2.09825,0.883322 -4.19463,0.904837 -6.27344,0.839844 -2.078869,-0.0649 -3.925965,-0.203039 -6.140626,-0.132813 -2.201209,0.0698 -4.601108,0.339359 -6.017578,0.507813 l -0.01953,0.002 -0.01953,0.002 c -1.407781,0.167622 -1.790176,0.231861 -3.324219,0.394531 h -0.002 c -0.0046,4.83e-4 -0.0052,0.0015 -0.0098,0.002 -1.547812,0.163962 -4.204397,0.322402 -6.207031,1.082032 l -1.291016,0.490234 v 0.253906 c -0.0383,0.03137 -0.08093,0.0345 -0.11914,0.06836 -0.452698,0.40114 -1.002798,1.167002 -0.91211,2.154297 0.09069,0.987294 0.753058,1.630494 1.273438,1.958984 0.520379,0.32849 1.032949,0.491296 1.617187,0.623047 1.779085,0.4012 4.017525,0.444627 5.984375,0.580078 -2.051113,0.554707 -4.486896,1.149092 -7.724609,2.097656 l -1.4375,0.419922 v 0.06445 c -3.373587,1.029136 -7.041197,2.216165 -9.138672,3.072266 l -1.246094,0.507812 v 0.15625 c -0.451831,0.229167 -1.032844,0.44257 -1.384765,0.736328 -0.668755,0.55823 -1.092054,1.650453 -1.146485,2.109375 l -0.002,0.0098 c -0.05334,0.45773 -0.115138,1.175969 0.3125,2.015625 0.428852,0.84204 1.448099,1.495777 2.414063,1.648438 1.907996,0.301358 3.724047,-0.228956 5.613281,-0.556641 l 0.06836,-0.01172 c 1.914194,-0.326533 3.741173,-0.573953 4.833985,-0.591797 0.714735,-0.01161 0.958315,0.135465 1.298828,0.246094 -0.0949,0.05893 -0.147221,0.108243 -0.246094,0.166016 -0.934033,0.545251 -1.581794,0.879254 -5.083984,1.496093 -3.502146,0.616833 -9.560832,1.328106 -13.181641,2.59961 -0.90495,0.31786 -1.649358,0.668317 -2.283203,1.113281 -0.633845,0.444965 -1.241094,0.983508 -1.513672,1.955078 -0.272578,0.971571 0.222754,2.227285 0.884766,2.792969 0.153306,0.130999 0.331252,0.118083 0.488281,0.214844 v 0.396484 l 1.621094,0.314453 c 1.50631,0.290884 3.192799,0.206351 4.923828,0.134766 1.147758,-0.04747 2.037072,-0.05035 2.982422,-0.0625 -0.451722,0.09775 -0.238191,0.106925 -0.955078,0.242187 -2.767268,0.522041 -7.594359,1.310775 -10.597657,2.06836 l -1.511718,0.380859 v 0.162109 c -0.632439,0.214479 -1.405836,0.403932 -1.876954,0.673829 -0.850581,0.487286 -1.658755,1.346177 -1.822265,2.378906 -0.08172,0.516256 -0.005,1.208859 0.320312,1.77539 0.325351,0.566532 0.81804,0.949291 1.304688,1.199219 0.973296,0.499857 2.032425,0.647458 3.574219,0.701172 3.082639,0.107434 8.05408,-0.326118 10.564453,-0.179687 1.218742,0.07109 1.809076,0.276164 2.021484,0.380859 -0.04228,0.13608 -0.117863,0.35999 -0.330078,0.810547 v 0.002 l -0.0039,0.0039 c -0.248008,0.526735 -0.424243,0.903839 -1.00586,1.482422 -0.582383,0.579346 -1.604919,1.33567 -3.486328,2.193359 l -0.0059,0.0039 h -0.002 c -3.774929,1.718899 -11.112839,3.816756 -18.423828,5.876953 l 1.085937,3.849613 c 7.164864,-2.01902 14.237031,-4.000993 18.660156,-5.964848 l 0.126953,-0.02539 0.208985,-0.0957 c 2.199419,-1.001498 3.65288,-2.003816 4.65625,-3.001953 1.00337,-0.998138 1.525785,-2.018492 1.808594,-2.619141 l 0.189453,-0.404297 v -0.09961 c 0.185017,-0.414843 0.378907,-0.812597 0.484375,-1.291016 0.146645,-0.665202 0.110189,-1.510966 -0.154297,-2.193359 -0.26451,-0.682455 -0.938902,-1.559516 -1.890625,-2.058594 -0.951723,-0.499078 -2.109361,-0.750671 -3.705078,-0.84375 h -0.002 c -1.896724,-0.110637 -4.073521,0.0131 -6.333985,0.105469 2.427463,-0.475434 4.980098,-0.979794 6.888672,-1.339844 2.868694,-0.541265 3.949878,-0.875158 4.806641,-1.326172 3.88e-4,-2.04e-4 0.0016,2.04e-4 0.002,0 l 1.068359,-0.5625 v -0.25 c 0.101235,-0.09427 0.199555,-0.110744 0.298828,-0.226562 0.454646,-0.53042 0.80323,-1.398003 0.759766,-2.21875 -0.04293,-0.822828 -0.535346,-1.903982 -1.433594,-2.556641 C 70.748397,74.7655 70.199631,74.527195 69.579361,74.355666 V 74.177931 L 67.71022,74.054884 c -1.111041,-0.07296 -2.414408,0.0092 -3.685546,0.06641 2.902346,-0.58003 6.19047,-1.126028 8.679687,-1.564453 l 1.652344,-0.291016 v -0.09766 c 2.335164,-0.521936 3.814891,-1.043637 4.753906,-1.591797 l 0.002,-0.002 0.990235,-0.578125 V 69.89468 c 0.248169,-0.172307 0.506372,-0.309458 0.742187,-0.509765 0.550377,-0.467504 1.178,-0.960321 1.419922,-2.125 0.241964,-1.164702 -0.387478,-2.197439 -0.916016,-2.714844 -0.148698,-0.145567 -0.289145,-0.181456 -0.4375,-0.294922 v -0.205078 l -1.117187,-0.548828 c -0.985655,-0.484561 -2.250568,-0.81254 -3.816406,-0.78711 -1.287092,0.02102 -2.876677,0.27619 -4.47461,0.533203 2.197849,-0.772624 4.32686,-1.557398 6.777344,-2.27539 3.685021,-1.079614 6.766879,-1.799355 9.050781,-2.457031 l 1.447266,-0.416016 v -0.0918 c 0.469781,-0.162355 1.026125,-0.311701 1.421875,-0.5 0.399234,-0.189957 0.771472,-0.393859 1.15039,-0.720703 0.378919,-0.326844 0.825106,-0.847635 0.955079,-1.625 v -0.0059 c 0.12661,-0.775764 -0.184946,-1.56714 -0.560547,-2.033204 -0.376364,-0.46701 -0.790815,-0.737029 -1.226563,-0.96289 -0.690585,-0.357951 -1.589021,-0.53784 -2.535156,-0.714844 0.114076,-0.01391 0.193134,-0.02365 0.322266,-0.03906 l 0.01953,-0.002 c 0.0071,-8.45e-4 0.01044,-0.0011 0.01758,-0.002 h 0.002 c 1.37719,-0.163979 3.735797,-0.423759 5.708984,-0.486328 1.973336,-0.06257 3.713539,0.06491 5.888672,0.132813 2.175183,0.06801 4.997423,0.09113 7.951173,-1.152344 L 109.11719,49.375 v -0.197266 c 2.42692,-1.278684 4.63199,-2.997786 6.04687,-4.322265 l 0.63477,-0.59375 v -0.134766 c 0.40243,-0.408981 0.81471,-0.823625 1.10937,-1.271484 0.061,-0.03604 0.12285,-0.02421 0.1836,-0.0625 l 0.93359,-0.587891 v -0.263672 c 1.57228,-1.299057 2.87522,-2.962218 3.60352,-4.730469 0.17925,-0.43521 0.14549,-0.863807 0.25,-1.302734 0.43423,-0.226863 0.82379,-0.505784 1.21484,-0.787109 -1.26513,2.109092 -2.39797,4.217505 -3.42578,6.183593 v 0.002 l -0.22656,0.433593 v 0.0332 c -1.06732,2.037263 -2.13181,4.019528 -2.76368,5.705079 l -0.12695,0.339843 v 0.167969 c -0.52689,1.599637 -0.70724,3.035669 -0.30469,4.292969 l 0.35938,1.121094 0.25781,0.05078 c 0.17292,0.273207 0.28664,0.518161 0.45117,0.710937 v 0.06445 l 0.58594,0.585938 c 0.1569,0.157163 1.4729,1.473438 2.83399,2.826172 1.07009,1.063531 1.8224,1.801931 2.46289,2.414062 v 0.06055 l 0.65234,0.578125 0.0156,0.01563 c 3.5e-4,3.12e-4 0.002,0.0016 0.002,0.002 h 0.002 c 0.59772,0.530763 1.75335,1.561748 2.85156,2.691407 1.09822,1.12976 2.18399,2.405494 3.13867,3.646484 0.95469,1.241088 1.73209,2.392819 2.27149,3.527344 0.46611,0.981926 0.90622,2.250992 1.53516,3.558593 v 0.109375 l 0.23828,0.44336 c 0.69226,1.28544 1.75157,2.451125 2.91797,3.68164 v 0.154297 l 0.58593,0.585938 c 1.5266,1.526907 3.41066,3.229896 4.65625,4.742187 1.24437,1.511882 1.94404,2.913956 2.22266,4.101563 v 0.002 c 0.27695,1.186999 0.18207,2.351213 -0.0117,3.294922 -0.19463,0.942074 -0.45533,1.452201 -0.60742,1.648437 l -0.002,0.002 c -0.15153,0.195904 0.10671,0.118229 -0.8711,0.28125 -0.97886,0.163062 -2.72218,0.266512 -4.4082,0.02539 -1.68582,-0.241092 -3.59389,-0.863462 -5.80274,-1.566406 -2.20966,-0.702882 -4.59421,-1.431674 -6.99414,-2.220703 h -0.002 l -0.20703,-0.06836 -0.0605,-0.0059 c -2.3284,-0.76928 -4.78955,-1.640833 -7.54101,-2.09375 h -0.002 l -0.16015,-0.02539 h -0.11133 c -2.75958,-0.424444 -5.54616,-0.430837 -7.5957,-0.330078 -2.11697,0.104126 -3.55937,0.32172 -4.79688,0.669922 -1.23708,0.348083 -2.51284,0.909804 -3.5293,1.974609 l -0.55468,0.578125 v 0.21875 c -0.67058,0.933556 -1.194897,1.988861 -1.525394,3.222657 -0.42453,1.580622 -0.641222,3.405927 -0.566406,5.251953 v 0.002 c 0.07595,1.845766 0.464908,3.700646 1.24609,5.597656 0.78119,1.897 1.91279,3.80291 3.13477,5.35937 1.2233,1.55562 2.47547,2.65535 3.60547,3.65235 l 2.64648,-2.99805 c -1.12929,-0.99638 -2.13533,-1.89182 -3.10547,-3.125 l -0.002,-0.002 c -0.96954,-1.23536 -1.96559,-2.91795 -2.58008,-4.41016 -0.61427,-1.49168 -0.89084,-2.82707 -0.94922,-4.236325 v -0.002 -0.002 c -0.0569,-1.41038 0.12628,-2.906551 0.4336,-4.050781 v -0.002 c 3.1e-4,-0.0012 0.002,-7.82e-4 0.002,-0.002 0.30654,-1.142659 0.72808,-1.893633 1.10742,-2.291016 0.37954,-0.397593 0.83179,-0.634648 1.72071,-0.884765 0.88848,-0.249997 1.97313,-0.43207 3.91015,-0.527344 1.93812,-0.09528 4.62067,-0.0866 7.02149,0.308594 2.40091,0.395212 4.75876,1.215279 7.21093,2.021484 l 0.20704,0.06836 0.0117,0.002 c 2.37239,0.776702 4.70202,1.490775 6.8125,2.16211 2.17715,0.692855 4.25705,1.399384 6.44922,1.71289 2.19198,0.313479 4.21572,0.196676 5.63086,-0.03906 l 1.67188,-0.277344 v -0.271484 c 0.6963,-0.320747 1.31007,-0.720257 1.70507,-1.230469 2.9e-4,-3.73e-4 0.002,3.74e-4 0.002,0 l 0.41797,-0.541016 v -0.470703 c 0.3657,-0.702072 0.75741,-1.368283 0.94531,-2.279297 v -0.002 l 0.041,-0.197265 v -0.154297 c 0.23215,-1.275583 0.36473,-2.873783 -0.0527,-4.660156 -0.39976,-1.705972 -1.31936,-3.395662 -2.57227,-5.058594 v -0.123047 l -0.45703,-0.552734 c -1.36202,-1.65365 -2.9912,-3.125041 -4.33007,-4.427735 v -0.01563 l -0.58594,-0.583984 v -0.002 c -1.3978,-1.397985 -2.24397,-2.439848 -2.8086,-3.488282 -0.49983,-0.928122 -0.91095,-2.164838 -1.49023,-3.478515 v -0.04492 l -0.19336,-0.40625 v -0.002 c -0.61363,-1.290673 -1.44453,-2.445067 -2.29883,-3.597656 V 65.1483 l -0.41601,-0.539062 c -0.86874,-1.129268 -1.86531,-2.256745 -2.875,-3.341797 v -0.07422 l -0.56446,-0.582031 c -0.95848,-0.985924 -1.73044,-1.663506 -2.39257,-2.257812 v -0.03711 L 126.55859,57.75 c -0.007,-0.0059 -0.0267,-0.02548 -0.0332,-0.03125 v 0.002 c -0.0426,-0.03786 -1.61529,-1.572834 -2.9707,-2.919922 -1.35541,-1.347088 -2.68112,-2.671116 -2.82422,-2.814453 l -0.002,-0.002 c -0.29885,-0.298842 -0.58631,-0.656579 -0.67188,-0.923828 l -0.002,-0.0039 c -0.0849,-0.266414 -0.14461,-0.808594 0.36719,-2.173829 0.5124,-1.366882 1.62385,-3.490035 2.79101,-5.724609 1.16837,-2.234962 2.34202,-4.511896 3.71484,-6.714844 1.3728,-2.202903 3.0146,-4.439261 4.45118,-6.542968 l 0.34961,-0.509766 v -0.05664 c 1.09538,-1.630376 2.05537,-3.195846 2.96484,-4.810547 l 0.0644,-0.01953 0.39453,-0.720703 c 1.14097,-2.087514 2.22111,-4.291038 2.81641,-5.923828 v -0.002 l 0.12109,-0.330078 v -0.148438 c 0.18506,-0.56567 0.36218,-1.09871 0.4043,-1.599609 0.0274,-0.325376 0.14674,-0.624043 -0.22461,-1.382813 -0.18567,-0.379384 -0.70408,-0.974517 -1.43945,-1.130859 z m 11.35156,73.775391 0.0527,0.455078 v -0.230469 z m -49.24414,11.769531 -0.002,-0.08203 v 0.04297 z m 0.566406,-5.251953 -0.06836,0.253906 v 0.263672 z m 5.609374,-5.994141 0.34375,-0.06445 -0.17578,0.01758 z m 16.51563,-50.353516 0.15039,-0.365234 v -0.396484 z m -39.363285,30.048829 0.04102,-0.201172 v -0.207032 z m -11.501953,19.126953 0.134765,0.722656 v -0.375 z m -21.59375,-2.404297 -0.02539,0.154297 v 0.158203 z m 59.115238,-43.863281 -0.043,-0.41211 v 0.207031 z m 5.75586,-4.277344 -0.3418,-0.128906 h -0.36719 z m 8.55468,-10.9375 -0.0976,0.296875 v 0.314453 z m -9.97461,14.677734 h 0.002 l 0.002,0.002 c 0.0189,0.0075 0.0988,0.109941 0.14063,0.146485 -0.0139,-0.0054 -0.0415,-0.0023 -0.0547,-0.0078 -0.12447,-0.05218 -0.0689,-0.05697 -0.14258,-0.11914 0.0146,0.0035 0.0367,-0.02755 0.0527,-0.02148 z m -20.287106,15.246094 -0.02344,0.308594 0.02344,-0.142578 z m -29.535156,9.390625 -0.01172,0.0957 v 0.117188 z"
         id="path19520" />
      <path
         style="display:inline;fill:none;fill-opacity:1;stroke:#f7aaea;stroke-width:3;stroke-linecap:butt;stroke-linejoin:miter;stroke-miterlimit:4;stroke-dasharray:none;stroke-opacity:1;filter:url(#filter19950)"
         d="m 44.238907,100.15806 c 7.312,-2.0603 14.623,-4.1208 18.711,-5.9819 v -10e-5 c 4.088,-1.8609 4.952,-3.5226 5.483,-4.6525 v -2e-4 c 0.532,-1.1298 0.731,-1.7279 0.466,-2.4142 v -2e-4 c -0.266,-0.6863 -0.997,-1.4608 -3.849,-1.6271 v 0 c -2.852,-0.1662 -7.822,0.2758 -10.612,0.1787 v 0 c -2.789,-0.0972 -3.393,-0.7337 -3.294,-1.3655 v -3e-4 c 0.1,-0.6316 0.905,-1.2576 3.725,-1.9691 l 10e-4,-1e-4 c 2.821,-0.7116 7.661,-1.5094 10.479,-2.0411 v 0 c 2.819,-0.5318 3.616,-0.7976 4.248,-1.1299 v -2e-4 c 0.631,-0.3323 1.096,-0.7311 1.062,-1.3827 v -6e-4 c -0.035,-0.6517 -0.57,-1.5561 -3.079,-1.7211 h -0.001 c -2.51,-0.1649 -6.996,0.4101 -9.173,-0.0103 v -1e-4 c -2.177,-0.4205 -2.044,-1.8366 1.087,-2.9359 v -2e-4 c 3.131,-1.0993 9.258,-1.8816 12.865,-2.5169 v 0 c 3.607,-0.6353 4.693,-1.1235 5.745,-1.7382 l 0.001,-3e-4 c 1.052,-0.6147 2.069,-1.3551 2.202,-1.9954 l 10e-4,-6e-4 c 0.132,-0.6402 -0.62,-1.1798 -1.394,-1.5607 l -0.001,-2e-4 c -0.774,-0.381 -1.572,-0.6034 -2.901,-0.5817 h -0.001 c -1.329,0.0217 -3.19,0.2876 -5.138,0.6199 v 0 c -1.948,0.3323 -3.982,0.7311 -5.033,0.5651 l -0.001,-10e-5 c -1.05,-0.1662 -1.116,-0.8971 -1.05,-1.4621 v -6e-4 c 0.067,-0.5648 0.267,-0.9636 2.546,-1.8939 l 0.001,-3e-4 c 2.28,-0.9306 6.641,-2.3927 10.384,-3.4893 v -2e-4 c 3.743,-1.0966 6.866,-1.8277 9.06,-2.4591 v -2e-4 c 2.193,-0.6314 3.456,-1.1631 3.556,-1.7611 v -6e-4 c 0.099,-0.5979 -0.965,-1.2623 -3.297,-1.5946 v -1e-4 c -2.333,-0.3323 -5.935,-0.3323 -7.702,-0.731 l -0.001,-1e-4 c -1.767,-0.3987 -1.701,-1.1962 -0.298,-1.7281 v -1e-4 c 1.402,-0.5318 4.14,-0.7976 5.708,-0.9638 v 0 c 1.568,-0.1662 1.967,-0.2326 3.363,-0.3988 v 0 c 1.396,-0.1662 3.789,-0.432 5.882,-0.4985 h 0.001 c 2.093,-0.0664 3.888,0.0665 6.015003,0.133 v 0 c 2.127,0.0664 4.586,0.0664 7.112,-0.9971 v -2e-4 c 2.526,-1.0636 5.118,-3.1903 6.679,-4.6524 l 0.001,-4e-4 c 1.561,-1.462 2.093,-2.2596 1.827,-3.2232 v -4e-4 c -0.266,-0.9636 -1.329,-2.0932 -2.293,-2.4589 v -2e-4 c -0.964,-0.3654 -1.828,0.0333 -2.393,0.4654 v 2e-4 c -0.565,0.432 -0.831,0.8973 -0.698,1.5287 l 0.001,6e-4 c 0.133,0.6315 0.665,1.4287 1.695,1.8605 v 2e-4 c 1.03,0.4317 2.559,0.498 4.087,-0.4657 l 0.001,-2e-4 c 1.528,-0.9639 3.057,-2.9577 3.754,-4.6523 l 0.001,-5e-4 c 0.697,-1.6946 0.564,-3.0902 -0.133,-3.8546 l -0.001,-4e-4 c -0.698,-0.7642 -1.96,-0.897 -2.691,-0.3985 l -0.001,3e-4 c -0.731,0.4987 -0.93,1.6284 -0.232,2.2264 v 3e-4 c 0.699,0.5978 2.294,0.6641 3.822,-5e-4 v -10e-5 c 1.529,-0.6648 2.991,-2.0605 4.054,-3.4229 l 0.001,-3e-4 c 1.063,-1.3624 1.727,-2.6917 2.159,-4.0208 l 0.001,-4e-4 c 0.432,-1.3292 0.631,-2.6583 0.033,-2.9243 l -0.001,-2e-4 c -0.598,-0.2652 -1.993,0.5321 -2.292,1.4626 v 4e-4 c -0.299,0.9306 0.499,1.9938 1.529,2.2927 v 10e-5 c 1.03,0.2986 2.293,-0.1666 3.29,-0.9973 v -4e-4 c 0.997,-0.8307 1.728,-2.027 2.647,-3.6552 v -4e-4 c 0.919,-1.6284 2.026,-3.6886 2.823,-5.2173 v -3e-4 c 0.798,-1.5286 1.286,-2.5254 1.542,-2.6915 v -3e-4 c 0.256,-0.1649 0.278,0.4998 -0.242,1.9279 v 3e-4 c -0.52,1.429 -1.584,3.6222 -2.692,5.6493 v 5e-4 c -1.108,2.0271 -2.261,3.888 -3.668,5.9483 l -0.001,5e-4 c -1.407,2.0604 -3.068,4.32 -4.497,6.613 l -0.001,6e-4 c -1.429,2.293 -2.625,4.6191 -3.788,6.8456 v 5e-4 c -1.163,2.2265 -2.293,4.3532 -2.891,5.9484 v 4e-4 c -0.598,1.5951 -0.665,2.6584 -0.399,3.4892 v 4e-4 c 0.266,0.8306 0.864,1.4287 1.163,1.7276 l 10e-4,3e-4 c 0.302,0.3019 5.284,5.2839 5.882,5.8156 v 3e-4 c 0.598,0.5319 1.795,1.5952 2.958,2.7915 v 3e-4 c 1.163,1.1964 2.293,2.5256 3.29,3.8216 v 3e-4 c 0.997,1.296 1.861,2.5588 2.492,3.8881 v 3e-4 c 0.632,1.3293 1.03,2.7249 1.728,4.0209 v 3e-4 c 0.698,1.296 1.695,2.4923 3.158,3.9545 v 4e-4 c 1.462,1.4622 3.39,3.1901 4.785,4.885 l 0.001,4e-4 c 1.395,1.6948 2.259,3.3563 2.625,4.9182 v 3e-4 c 0.365,1.5619 0.232,3.024 -0.001,4.1538 v 5e-4 c -0.232,1.1296 -0.565,1.927 -0.985,2.4701 v 5e-4 c -0.421,0.5429 -0.93,0.8316 -2.126,1.031 v 1e-4 c -1.197,0.1993 -3.08,0.3092 -5.019,0.0319 l -0.001,-1e-4 c -1.938,-0.2773 -3.932,-0.9419 -6.126,-1.6398 v -2e-4 c -2.193,-0.6978 -4.586,-1.4289 -7.012,-2.2265 v -2e-4 c -2.426,-0.7975 -4.885,-1.6615 -7.511,-2.0935 v -10e-5 c -2.626,-0.432 -5.417,-0.432 -7.444,-0.3323 h -0.001 c -2.027,0.0997 -3.289,0.2991 -4.353,0.5982 v 10e-5 c -1.064,0.2991 -1.927,0.6979 -2.625,1.429 l -0.001,3e-4 c -0.697,0.7313 -1.229,1.7946 -1.595,3.157 v 4e-4 c -0.365,1.3626 -0.565,3.0241 -0.498,4.6524 v 4e-4 c 0.066,1.6282 0.399,3.2232 1.097,4.9182 v 0 c 0.698,1.695 1.761,3.49 2.858,4.885 v 10e-4 c 1.097,1.395 2.227,2.392 3.356,3.389"
         id="path19522" />
      <path
         style="fill:none;stroke:#ffffff;stroke-width:1;stroke-linecap:butt;stroke-linejoin:miter;stroke-miterlimit:4;stroke-dasharray:none;stroke-opacity:1"
         d="m 44.238907,100.15806 c 7.311587,-2.060537 14.623001,-4.121025 18.710641,-5.982055 4.08764,-1.861031 4.951698,-3.522682 5.483438,-4.652603 0.531739,-1.129922 0.731138,-1.728121 0.465419,-2.414471 -0.26572,-0.686349 -0.996836,-1.460921 -3.848568,-1.62724 -2.851733,-0.166319 -7.822488,0.275814 -10.611789,0.178643 -2.789302,-0.09717 -3.393904,-0.733673 -3.294286,-1.365428 0.09962,-0.631756 0.903943,-1.257794 3.725098,-1.969439 2.821154,-0.711644 7.661654,-1.509459 10.480067,-2.041209 2.818412,-0.531749 3.616007,-0.797611 4.247384,-1.129935 0.631376,-0.332323 1.096639,-0.731122 1.062195,-1.382848 -0.03445,-0.651725 -0.568735,-1.556645 -3.079158,-1.721701 -2.510424,-0.165056 -6.996713,0.410113 -9.17366,-0.0103 -2.176946,-0.420411 -2.044017,-1.836601 1.086498,-2.936041 3.130515,-1.099441 9.258009,-1.881725 12.865128,-2.517047 3.60712,-0.635323 4.693295,-1.123464 5.745754,-1.73822 1.052459,-0.614755 2.069851,-1.355277 2.202948,-1.995697 0.133097,-0.640419 -0.618962,-1.180248 -1.393592,-1.561338 -0.774631,-0.38109 -1.572427,-0.603556 -2.901848,-0.581888 -1.32942,0.02167 -3.190471,0.287529 -5.138494,0.619865 -1.948023,0.332336 -3.982856,0.731129 -5.033647,0.565122 -1.050791,-0.166008 -1.117255,-0.897118 -1.050825,-1.462199 0.06643,-0.56508 0.26582,-0.963861 2.546304,-1.894503 2.280484,-0.930642 6.64166,-2.392895 10.384322,-3.48961 3.742663,-1.096715 6.866569,-1.827843 9.059973,-2.459293 2.193405,-0.63145 3.456262,-1.16318 3.556042,-1.761268 0.09978,-0.598089 -0.963677,-1.262751 -3.296456,-1.595184 -2.332779,-0.332434 -5.934602,-0.332434 -7.702525,-0.731125 -1.767922,-0.398692 -1.701458,-1.196268 -0.299123,-1.72815 1.402335,-0.531883 4.140165,-0.797746 5.708503,-0.963922 1.568337,-0.166175 1.967134,-0.232641 3.362982,-0.398807 1.395847,-0.166166 3.788625,-0.43203 5.882392,-0.498473 2.093767,-0.06644 3.888347,0.06649 6.015316,0.132946 2.12697,0.06646 4.58621,0.06646 7.11188,-0.997055 2.52567,-1.063512 5.11785,-3.190422 6.6798,-4.652671 1.56196,-1.46225 2.09368,-2.259844 1.82795,-3.223526 -0.26573,-0.963681 -1.32919,-2.093607 -2.29304,-2.459336 -0.96386,-0.36573 -1.82792,0.03307 -2.39298,0.465179 -0.56505,0.432113 -0.83092,0.897372 -0.69785,1.528932 0.13307,0.63156 0.6648,1.429155 1.69509,1.861046 1.0303,0.43189 2.55902,0.498357 4.08763,-0.465428 1.52861,-0.963785 3.05733,-2.957767 3.75527,-4.652574 0.69793,-1.694807 0.565,-3.090595 -0.13279,-3.8551 -0.69779,-0.764504 -1.96065,-0.897437 -2.69195,-0.39883 -0.73131,0.498607 -0.93071,1.628532 -0.23263,2.226638 0.69808,0.598107 2.29327,0.664574 3.8219,-1.24e-4 1.52863,-0.664697 2.99088,-2.060483 4.05434,-3.423022 1.06345,-1.362539 1.72811,-2.691859 2.16016,-4.021164 0.43205,-1.329304 0.63145,-2.658624 0.0333,-2.924621 -0.59816,-0.265997 -1.99395,0.531597 -2.29298,1.462323 -0.29902,0.930726 0.49857,1.994181 1.52879,2.293106 1.03022,0.298925 2.29307,-0.166336 3.29,-0.997127 0.99692,-0.830791 1.72805,-2.027183 2.64709,-3.655643 0.91904,-1.62846 2.02594,-3.688871 2.82356,-5.21764 0.79762,-1.52877 1.28589,-2.525768 1.54157,-2.691846 0.25567,-0.166078 0.27867,0.498571 -0.24161,1.927564 -0.52028,1.428994 -1.58371,3.622332 -2.69195,5.649609 -1.10824,2.027278 -2.26117,3.888324 -3.66851,5.948824 -1.40733,2.060499 -3.06898,4.320345 -4.49805,6.613522 -1.42907,2.293177 -2.62546,4.619489 -3.78865,6.846164 -1.16319,2.226675 -2.29311,4.353592 -2.8913,5.948895 -0.59819,1.595303 -0.66466,2.658762 -0.39864,3.489617 0.26601,0.830855 0.86421,1.429054 1.16318,1.728024 0.29897,0.298971 5.28402,5.284025 5.88238,5.815901 0.59836,0.531875 1.79475,1.595328 2.95792,2.791772 1.16317,1.196445 2.2931,2.525768 3.2901,3.821903 0.997,1.296136 1.86106,2.558994 2.49245,3.888361 0.63138,1.329366 1.03018,2.725154 1.72817,4.021266 0.69799,1.296112 1.69498,2.492501 3.15731,3.95478 1.46232,1.46228 3.38984,3.1904 4.7856,4.885368 1.39577,1.694969 2.25983,3.356623 2.6253,4.918581 0.36548,1.561959 0.23255,3.024218 -1.1e-4,4.154115 -0.23266,1.129897 -0.56498,1.927475 -0.98545,2.470641 -0.42047,0.543166 -0.92918,0.832042 -2.12553,1.031464 -1.19636,0.199422 -3.08043,0.30934 -5.01947,0.03202 -1.93904,-0.277322 -3.93303,-0.941985 -6.12647,-1.639903 -2.19345,-0.697918 -4.58623,-1.429044 -7.01231,-2.226654 -2.42609,-0.797609 -4.88533,-1.661667 -7.51084,-2.093761 -2.62552,-0.432095 -5.4171,-0.432095 -7.44439,-0.332409 -2.02729,0.09969 -3.29015,0.299086 -4.35368,0.598182 -1.06354,0.299096 -1.9276,0.697893 -2.6256,1.429124 -0.69799,0.731231 -1.22972,1.794691 -1.59529,3.157352 -0.36556,1.362661 -0.56495,3.024311 -0.49844,4.652816 0.0665,1.628503 0.39885,3.223693 1.09683,4.918633 0.69798,1.69494 1.76144,3.48953 2.85821,4.88532 1.09677,1.39579 2.2267,2.39278 3.35636,3.38954"
         id="path4488"
         inkscape:path-effect="#path-effect4490"
         inkscape:original-d="m 44.238907,100.15806 c 7.311675,-2.060223 14.623089,-4.120713 21.934238,-6.181463 0.864357,-1.66146 1.728417,-3.32311 2.592229,-4.98506 0.199671,-0.59795 0.399068,-1.19615 0.598204,-1.79462 -0.730888,-0.77434 -1.462002,-1.548914 -2.193422,-2.323794 -4.972026,0.44254 -9.942781,0.884674 -14.916576,1.326784 -0.604824,-0.636754 -1.209428,-1.273254 -1.814776,-1.910524 0.804803,-0.62594 1.609127,-1.25198 2.412983,-1.87812 4.838277,-0.79714 9.678776,-1.59496 14.51777,-2.39283 0.79789,-0.2656 1.595482,-0.53147 2.392828,-0.7976 0.465545,-0.39855 0.930807,-0.79735 1.395815,-1.19642 -0.534059,-0.90471 -1.068349,-1.80963 -1.602936,-2.71487 -4.486302,0.57547 -8.972591,1.15064 -13.459439,1.72558 0.133203,-1.41603 0.266133,-2.83222 0.398806,-4.24877 6.128108,-0.78206 12.255601,-1.56435 18.383169,-2.34694 1.086776,-0.48803 2.172952,-0.97617 3.259475,-1.46485 1.01847,-0.74085 2.035863,-1.48137 3.053799,-2.22275 -0.751997,-0.53971 -1.504055,-1.07954 -2.256191,-1.6195 -0.79714,-0.22209 -1.594935,-0.44456 -2.392825,-0.66724 -1.860859,0.26614 -3.72191,0.532 -5.583262,0.7976 -2.034677,0.39908 -4.069511,0.79787 -6.10471,1.19642 -0.0662,-0.73089 -0.132667,-1.462 -0.199401,-2.19343 0.199672,-0.39855 0.399064,-0.79733 0.598205,-1.19641 4.361614,-1.462047 8.72279,-2.9243 13.083789,-4.386847 3.124292,-0.730892 6.248198,-1.462018 9.371901,-2.193424 1.263168,-0.531485 2.526025,-1.063215 3.78864,-1.595218 -1.063233,-0.664422 -2.126692,-1.329082 -3.190433,-1.994022 -3.601771,2.65e-4 -7.203594,2.65e-4 -10.805887,0 0.06673,-0.797359 0.133196,-1.594935 0.1994,-2.392826 2.73821,-0.26561 5.47604,-0.531474 8.213659,-0.797607 0.399079,-0.0662 0.797875,-0.132673 1.196414,-0.199403 2.393138,-0.26561 4.785916,-0.531474 7.178479,-0.797608 1.794921,0.133202 3.589501,0.266134 5.383851,0.398804 2.459607,2.64e-4 4.918847,2.64e-4 7.377877,0 2.59255,-2.126734 5.18472,-4.253648 7.77669,-6.380869 0.53201,-0.797362 1.06374,-1.594953 1.59521,-2.392828 -1.06323,-1.129702 -2.12669,-2.259626 -3.19043,-3.389836 -0.86383,0.399076 -1.72789,0.797872 -2.59223,1.196414 -0.26561,0.465545 -0.53147,0.930806 -0.79761,1.395814 0.53202,0.797888 1.06375,1.595483 1.59522,2.392826 1.52905,0.06673 3.05777,0.133199 4.58625,0.199403 1.52905,-1.993797 3.05777,-3.987779 4.58625,-5.982065 -0.13267,-1.395579 -0.2656,-2.791367 -0.3988,-4.187447 -1.26264,-0.132672 -2.5255,-0.265604 -3.78865,-0.398804 -0.19914,1.130232 -0.39854,2.260156 -0.5982,3.389837 1.59551,0.06673 3.1907,0.133199 4.78565,0.199403 1.46258,-1.395579 2.92483,-2.791367 4.38685,-4.187447 0.66495,-1.32911 1.32961,-2.65843 1.99402,-3.988043 0.19967,-1.32911 0.39907,-2.65843 0.59821,-3.988043 -1.39558,0.797888 -2.79137,1.595482 -4.18745,2.392825 0.79789,1.063765 1.59548,2.127221 2.39283,3.190436 1.26317,-0.465016 2.52602,-0.93028 3.78864,-1.395815 0.73142,-1.196173 1.46255,-2.392563 2.19342,-3.589239 1.10722,-2.060267 2.21411,-4.120678 3.3208,-6.181469 0.48855,-0.996764 0.97683,-1.993761 1.46485,-2.991032 0.0233,0.664951 0.0463,1.3296 0.069,1.994022 -1.06323,2.19373 -2.12666,4.38707 -3.19043,6.580272 -1.15272,1.861387 -2.30565,3.722436 -3.45888,5.583261 -1.66145,2.2602 -3.3231,4.520046 -4.98505,6.779673 -1.19617,2.326671 -2.39256,4.652983 -3.58924,6.979076 -1.1297,2.127263 -2.25963,4.254177 -3.38984,6.380871 -0.0662,1.063763 -0.13267,2.127221 -0.1994,3.190433 0.59848,0.598482 1.19668,1.196679 1.79462,1.794621 l 4.98505,4.985054 c 1.19671,1.063763 2.39309,2.127221 3.58924,3.190434 1.13023,1.329643 2.26016,2.658963 3.38984,3.988043 0.86436,1.26317 1.72842,2.52603 2.59223,3.78864 0.39908,1.39611 0.79787,2.7919 1.19641,4.18745 0.9973,1.1967 1.99429,2.39309 2.99104,3.58924 1.92785,1.72845 3.85537,3.45657 5.78266,5.18445 0.86435,1.66199 1.72841,3.323644 2.59223,4.985064 -0.13268,1.46257 -0.26561,2.92483 -0.39881,4.38685 -0.33208,0.79788 -0.6644,1.59546 -0.99701,2.39282 -0.50847,0.28915 -1.01718,0.57803 -1.52618,0.86665 -1.88387,0.11019 -3.76794,0.22011 -5.6523,0.32976 -1.99379,-0.66442 -3.98778,-1.32908 -5.98206,-1.99402 -2.39261,-0.73089 -4.78539,-1.46202 -7.17848,-2.19342 -2.45908,-0.86383 -4.91832,-1.72789 -7.37788,-2.59223 -2.79142,2.6e-4 -5.583,2.6e-4 -8.37489,0 -1.26264,0.19967 -2.5255,0.39907 -3.78865,0.59821 -0.86382,0.39907 -1.72788,0.79787 -2.59222,1.19641 -0.53149,1.06376 -1.06322,2.12722 -1.59522,3.19043 -0.19914,1.66199 -0.39854,3.32364 -0.59821,4.98506 0.33261,1.595513 0.66494,3.190703 0.99701,4.785653 1.06377,1.79492 2.12723,3.58951 3.19044,5.38386 1.13023,0.9973 2.26016,1.99429 3.38984,2.99103"
         sodipodi:nodetypes="ccccccccccccccccccccccccccccccccccccccccccccccccccccccccccccccsccccccccccccccccccccccc" />
    </g>
  </g>
</svg>
